%TF.GenerationSoftware,KiCad,Pcbnew,7.0.9*%
%TF.CreationDate,2023-12-24T12:01:44-08:00*%
%TF.ProjectId,stm43f405,73746d34-3366-4343-9035-2e6b69636164,rev?*%
%TF.SameCoordinates,Original*%
%TF.FileFunction,Drillmap*%
%TF.FilePolarity,Positive*%
%FSLAX45Y45*%
G04 Gerber Fmt 4.5, Leading zero omitted, Abs format (unit mm)*
G04 Created by KiCad (PCBNEW 7.0.9) date 2023-12-24 12:01:44*
%MOMM*%
%LPD*%
G01*
G04 APERTURE LIST*
%ADD10C,0.254000*%
%ADD11C,0.200000*%
%ADD12C,0.100000*%
G04 APERTURE END LIST*
D10*
X8750000Y-2900000D02*
X12250000Y-2900000D01*
X12250000Y-7200000D01*
X8750000Y-7200000D01*
X8750000Y-2900000D01*
D11*
D12*
X10178500Y-6507000D02*
X10243500Y-6572000D01*
X10243500Y-6507000D02*
X10178500Y-6572000D01*
X10756500Y-6507000D02*
X10821500Y-6572000D01*
X10821500Y-6507000D02*
X10756500Y-6572000D01*
D11*
X8998077Y-7524184D02*
X8998077Y-7324184D01*
X8998077Y-7324184D02*
X9045696Y-7324184D01*
X9045696Y-7324184D02*
X9074267Y-7333708D01*
X9074267Y-7333708D02*
X9093315Y-7352755D01*
X9093315Y-7352755D02*
X9102839Y-7371803D01*
X9102839Y-7371803D02*
X9112363Y-7409898D01*
X9112363Y-7409898D02*
X9112363Y-7438469D01*
X9112363Y-7438469D02*
X9102839Y-7476565D01*
X9102839Y-7476565D02*
X9093315Y-7495612D01*
X9093315Y-7495612D02*
X9074267Y-7514660D01*
X9074267Y-7514660D02*
X9045696Y-7524184D01*
X9045696Y-7524184D02*
X8998077Y-7524184D01*
X9198077Y-7524184D02*
X9198077Y-7390850D01*
X9198077Y-7428946D02*
X9207601Y-7409898D01*
X9207601Y-7409898D02*
X9217124Y-7400374D01*
X9217124Y-7400374D02*
X9236172Y-7390850D01*
X9236172Y-7390850D02*
X9255220Y-7390850D01*
X9321886Y-7524184D02*
X9321886Y-7390850D01*
X9321886Y-7324184D02*
X9312363Y-7333708D01*
X9312363Y-7333708D02*
X9321886Y-7343231D01*
X9321886Y-7343231D02*
X9331410Y-7333708D01*
X9331410Y-7333708D02*
X9321886Y-7324184D01*
X9321886Y-7324184D02*
X9321886Y-7343231D01*
X9445696Y-7524184D02*
X9426648Y-7514660D01*
X9426648Y-7514660D02*
X9417124Y-7495612D01*
X9417124Y-7495612D02*
X9417124Y-7324184D01*
X9550458Y-7524184D02*
X9531410Y-7514660D01*
X9531410Y-7514660D02*
X9521886Y-7495612D01*
X9521886Y-7495612D02*
X9521886Y-7324184D01*
X9779029Y-7524184D02*
X9779029Y-7324184D01*
X9779029Y-7324184D02*
X9845696Y-7467041D01*
X9845696Y-7467041D02*
X9912363Y-7324184D01*
X9912363Y-7324184D02*
X9912363Y-7524184D01*
X10093315Y-7524184D02*
X10093315Y-7419422D01*
X10093315Y-7419422D02*
X10083791Y-7400374D01*
X10083791Y-7400374D02*
X10064744Y-7390850D01*
X10064744Y-7390850D02*
X10026648Y-7390850D01*
X10026648Y-7390850D02*
X10007601Y-7400374D01*
X10093315Y-7514660D02*
X10074267Y-7524184D01*
X10074267Y-7524184D02*
X10026648Y-7524184D01*
X10026648Y-7524184D02*
X10007601Y-7514660D01*
X10007601Y-7514660D02*
X9998077Y-7495612D01*
X9998077Y-7495612D02*
X9998077Y-7476565D01*
X9998077Y-7476565D02*
X10007601Y-7457517D01*
X10007601Y-7457517D02*
X10026648Y-7447993D01*
X10026648Y-7447993D02*
X10074267Y-7447993D01*
X10074267Y-7447993D02*
X10093315Y-7438469D01*
X10188553Y-7390850D02*
X10188553Y-7590850D01*
X10188553Y-7400374D02*
X10207601Y-7390850D01*
X10207601Y-7390850D02*
X10245696Y-7390850D01*
X10245696Y-7390850D02*
X10264744Y-7400374D01*
X10264744Y-7400374D02*
X10274267Y-7409898D01*
X10274267Y-7409898D02*
X10283791Y-7428946D01*
X10283791Y-7428946D02*
X10283791Y-7486088D01*
X10283791Y-7486088D02*
X10274267Y-7505136D01*
X10274267Y-7505136D02*
X10264744Y-7514660D01*
X10264744Y-7514660D02*
X10245696Y-7524184D01*
X10245696Y-7524184D02*
X10207601Y-7524184D01*
X10207601Y-7524184D02*
X10188553Y-7514660D01*
X10369505Y-7505136D02*
X10379029Y-7514660D01*
X10379029Y-7514660D02*
X10369505Y-7524184D01*
X10369505Y-7524184D02*
X10359982Y-7514660D01*
X10359982Y-7514660D02*
X10369505Y-7505136D01*
X10369505Y-7505136D02*
X10369505Y-7524184D01*
X10369505Y-7400374D02*
X10379029Y-7409898D01*
X10379029Y-7409898D02*
X10369505Y-7419422D01*
X10369505Y-7419422D02*
X10359982Y-7409898D01*
X10359982Y-7409898D02*
X10369505Y-7400374D01*
X10369505Y-7400374D02*
X10369505Y-7419422D01*
D12*
X8672300Y-7820200D02*
X8737300Y-7885200D01*
X8737300Y-7820200D02*
X8672300Y-7885200D01*
D11*
X9036172Y-7744184D02*
X9055220Y-7744184D01*
X9055220Y-7744184D02*
X9074267Y-7753708D01*
X9074267Y-7753708D02*
X9083791Y-7763231D01*
X9083791Y-7763231D02*
X9093315Y-7782279D01*
X9093315Y-7782279D02*
X9102839Y-7820374D01*
X9102839Y-7820374D02*
X9102839Y-7867993D01*
X9102839Y-7867993D02*
X9093315Y-7906088D01*
X9093315Y-7906088D02*
X9083791Y-7925136D01*
X9083791Y-7925136D02*
X9074267Y-7934660D01*
X9074267Y-7934660D02*
X9055220Y-7944184D01*
X9055220Y-7944184D02*
X9036172Y-7944184D01*
X9036172Y-7944184D02*
X9017124Y-7934660D01*
X9017124Y-7934660D02*
X9007601Y-7925136D01*
X9007601Y-7925136D02*
X8998077Y-7906088D01*
X8998077Y-7906088D02*
X8988553Y-7867993D01*
X8988553Y-7867993D02*
X8988553Y-7820374D01*
X8988553Y-7820374D02*
X8998077Y-7782279D01*
X8998077Y-7782279D02*
X9007601Y-7763231D01*
X9007601Y-7763231D02*
X9017124Y-7753708D01*
X9017124Y-7753708D02*
X9036172Y-7744184D01*
X9188553Y-7925136D02*
X9198077Y-7934660D01*
X9198077Y-7934660D02*
X9188553Y-7944184D01*
X9188553Y-7944184D02*
X9179029Y-7934660D01*
X9179029Y-7934660D02*
X9188553Y-7925136D01*
X9188553Y-7925136D02*
X9188553Y-7944184D01*
X9369505Y-7744184D02*
X9331410Y-7744184D01*
X9331410Y-7744184D02*
X9312363Y-7753708D01*
X9312363Y-7753708D02*
X9302839Y-7763231D01*
X9302839Y-7763231D02*
X9283791Y-7791803D01*
X9283791Y-7791803D02*
X9274267Y-7829898D01*
X9274267Y-7829898D02*
X9274267Y-7906088D01*
X9274267Y-7906088D02*
X9283791Y-7925136D01*
X9283791Y-7925136D02*
X9293315Y-7934660D01*
X9293315Y-7934660D02*
X9312363Y-7944184D01*
X9312363Y-7944184D02*
X9350458Y-7944184D01*
X9350458Y-7944184D02*
X9369505Y-7934660D01*
X9369505Y-7934660D02*
X9379029Y-7925136D01*
X9379029Y-7925136D02*
X9388553Y-7906088D01*
X9388553Y-7906088D02*
X9388553Y-7858469D01*
X9388553Y-7858469D02*
X9379029Y-7839422D01*
X9379029Y-7839422D02*
X9369505Y-7829898D01*
X9369505Y-7829898D02*
X9350458Y-7820374D01*
X9350458Y-7820374D02*
X9312363Y-7820374D01*
X9312363Y-7820374D02*
X9293315Y-7829898D01*
X9293315Y-7829898D02*
X9283791Y-7839422D01*
X9283791Y-7839422D02*
X9274267Y-7858469D01*
X9569505Y-7744184D02*
X9474267Y-7744184D01*
X9474267Y-7744184D02*
X9464744Y-7839422D01*
X9464744Y-7839422D02*
X9474267Y-7829898D01*
X9474267Y-7829898D02*
X9493315Y-7820374D01*
X9493315Y-7820374D02*
X9540934Y-7820374D01*
X9540934Y-7820374D02*
X9559982Y-7829898D01*
X9559982Y-7829898D02*
X9569505Y-7839422D01*
X9569505Y-7839422D02*
X9579029Y-7858469D01*
X9579029Y-7858469D02*
X9579029Y-7906088D01*
X9579029Y-7906088D02*
X9569505Y-7925136D01*
X9569505Y-7925136D02*
X9559982Y-7934660D01*
X9559982Y-7934660D02*
X9540934Y-7944184D01*
X9540934Y-7944184D02*
X9493315Y-7944184D01*
X9493315Y-7944184D02*
X9474267Y-7934660D01*
X9474267Y-7934660D02*
X9464744Y-7925136D01*
X9702839Y-7744184D02*
X9721886Y-7744184D01*
X9721886Y-7744184D02*
X9740934Y-7753708D01*
X9740934Y-7753708D02*
X9750458Y-7763231D01*
X9750458Y-7763231D02*
X9759982Y-7782279D01*
X9759982Y-7782279D02*
X9769505Y-7820374D01*
X9769505Y-7820374D02*
X9769505Y-7867993D01*
X9769505Y-7867993D02*
X9759982Y-7906088D01*
X9759982Y-7906088D02*
X9750458Y-7925136D01*
X9750458Y-7925136D02*
X9740934Y-7934660D01*
X9740934Y-7934660D02*
X9721886Y-7944184D01*
X9721886Y-7944184D02*
X9702839Y-7944184D01*
X9702839Y-7944184D02*
X9683791Y-7934660D01*
X9683791Y-7934660D02*
X9674267Y-7925136D01*
X9674267Y-7925136D02*
X9664744Y-7906088D01*
X9664744Y-7906088D02*
X9655220Y-7867993D01*
X9655220Y-7867993D02*
X9655220Y-7820374D01*
X9655220Y-7820374D02*
X9664744Y-7782279D01*
X9664744Y-7782279D02*
X9674267Y-7763231D01*
X9674267Y-7763231D02*
X9683791Y-7753708D01*
X9683791Y-7753708D02*
X9702839Y-7744184D01*
X9855220Y-7944184D02*
X9855220Y-7810850D01*
X9855220Y-7829898D02*
X9864744Y-7820374D01*
X9864744Y-7820374D02*
X9883791Y-7810850D01*
X9883791Y-7810850D02*
X9912363Y-7810850D01*
X9912363Y-7810850D02*
X9931410Y-7820374D01*
X9931410Y-7820374D02*
X9940934Y-7839422D01*
X9940934Y-7839422D02*
X9940934Y-7944184D01*
X9940934Y-7839422D02*
X9950458Y-7820374D01*
X9950458Y-7820374D02*
X9969505Y-7810850D01*
X9969505Y-7810850D02*
X9998077Y-7810850D01*
X9998077Y-7810850D02*
X10017125Y-7820374D01*
X10017125Y-7820374D02*
X10026648Y-7839422D01*
X10026648Y-7839422D02*
X10026648Y-7944184D01*
X10121886Y-7944184D02*
X10121886Y-7810850D01*
X10121886Y-7829898D02*
X10131410Y-7820374D01*
X10131410Y-7820374D02*
X10150458Y-7810850D01*
X10150458Y-7810850D02*
X10179029Y-7810850D01*
X10179029Y-7810850D02*
X10198077Y-7820374D01*
X10198077Y-7820374D02*
X10207601Y-7839422D01*
X10207601Y-7839422D02*
X10207601Y-7944184D01*
X10207601Y-7839422D02*
X10217125Y-7820374D01*
X10217125Y-7820374D02*
X10236172Y-7810850D01*
X10236172Y-7810850D02*
X10264744Y-7810850D01*
X10264744Y-7810850D02*
X10283791Y-7820374D01*
X10283791Y-7820374D02*
X10293315Y-7839422D01*
X10293315Y-7839422D02*
X10293315Y-7944184D01*
X10683791Y-7734660D02*
X10512363Y-7991803D01*
X10940934Y-7744184D02*
X10959982Y-7744184D01*
X10959982Y-7744184D02*
X10979029Y-7753708D01*
X10979029Y-7753708D02*
X10988553Y-7763231D01*
X10988553Y-7763231D02*
X10998077Y-7782279D01*
X10998077Y-7782279D02*
X11007601Y-7820374D01*
X11007601Y-7820374D02*
X11007601Y-7867993D01*
X11007601Y-7867993D02*
X10998077Y-7906088D01*
X10998077Y-7906088D02*
X10988553Y-7925136D01*
X10988553Y-7925136D02*
X10979029Y-7934660D01*
X10979029Y-7934660D02*
X10959982Y-7944184D01*
X10959982Y-7944184D02*
X10940934Y-7944184D01*
X10940934Y-7944184D02*
X10921887Y-7934660D01*
X10921887Y-7934660D02*
X10912363Y-7925136D01*
X10912363Y-7925136D02*
X10902839Y-7906088D01*
X10902839Y-7906088D02*
X10893315Y-7867993D01*
X10893315Y-7867993D02*
X10893315Y-7820374D01*
X10893315Y-7820374D02*
X10902839Y-7782279D01*
X10902839Y-7782279D02*
X10912363Y-7763231D01*
X10912363Y-7763231D02*
X10921887Y-7753708D01*
X10921887Y-7753708D02*
X10940934Y-7744184D01*
X11093315Y-7925136D02*
X11102839Y-7934660D01*
X11102839Y-7934660D02*
X11093315Y-7944184D01*
X11093315Y-7944184D02*
X11083791Y-7934660D01*
X11083791Y-7934660D02*
X11093315Y-7925136D01*
X11093315Y-7925136D02*
X11093315Y-7944184D01*
X11226648Y-7744184D02*
X11245696Y-7744184D01*
X11245696Y-7744184D02*
X11264744Y-7753708D01*
X11264744Y-7753708D02*
X11274267Y-7763231D01*
X11274267Y-7763231D02*
X11283791Y-7782279D01*
X11283791Y-7782279D02*
X11293315Y-7820374D01*
X11293315Y-7820374D02*
X11293315Y-7867993D01*
X11293315Y-7867993D02*
X11283791Y-7906088D01*
X11283791Y-7906088D02*
X11274267Y-7925136D01*
X11274267Y-7925136D02*
X11264744Y-7934660D01*
X11264744Y-7934660D02*
X11245696Y-7944184D01*
X11245696Y-7944184D02*
X11226648Y-7944184D01*
X11226648Y-7944184D02*
X11207601Y-7934660D01*
X11207601Y-7934660D02*
X11198077Y-7925136D01*
X11198077Y-7925136D02*
X11188553Y-7906088D01*
X11188553Y-7906088D02*
X11179029Y-7867993D01*
X11179029Y-7867993D02*
X11179029Y-7820374D01*
X11179029Y-7820374D02*
X11188553Y-7782279D01*
X11188553Y-7782279D02*
X11198077Y-7763231D01*
X11198077Y-7763231D02*
X11207601Y-7753708D01*
X11207601Y-7753708D02*
X11226648Y-7744184D01*
X11369506Y-7763231D02*
X11379029Y-7753708D01*
X11379029Y-7753708D02*
X11398077Y-7744184D01*
X11398077Y-7744184D02*
X11445696Y-7744184D01*
X11445696Y-7744184D02*
X11464744Y-7753708D01*
X11464744Y-7753708D02*
X11474267Y-7763231D01*
X11474267Y-7763231D02*
X11483791Y-7782279D01*
X11483791Y-7782279D02*
X11483791Y-7801327D01*
X11483791Y-7801327D02*
X11474267Y-7829898D01*
X11474267Y-7829898D02*
X11359982Y-7944184D01*
X11359982Y-7944184D02*
X11483791Y-7944184D01*
X11664744Y-7744184D02*
X11569506Y-7744184D01*
X11569506Y-7744184D02*
X11559982Y-7839422D01*
X11559982Y-7839422D02*
X11569506Y-7829898D01*
X11569506Y-7829898D02*
X11588553Y-7820374D01*
X11588553Y-7820374D02*
X11636172Y-7820374D01*
X11636172Y-7820374D02*
X11655220Y-7829898D01*
X11655220Y-7829898D02*
X11664744Y-7839422D01*
X11664744Y-7839422D02*
X11674267Y-7858469D01*
X11674267Y-7858469D02*
X11674267Y-7906088D01*
X11674267Y-7906088D02*
X11664744Y-7925136D01*
X11664744Y-7925136D02*
X11655220Y-7934660D01*
X11655220Y-7934660D02*
X11636172Y-7944184D01*
X11636172Y-7944184D02*
X11588553Y-7944184D01*
X11588553Y-7944184D02*
X11569506Y-7934660D01*
X11569506Y-7934660D02*
X11559982Y-7925136D01*
X11845696Y-7744184D02*
X11807601Y-7744184D01*
X11807601Y-7744184D02*
X11788553Y-7753708D01*
X11788553Y-7753708D02*
X11779029Y-7763231D01*
X11779029Y-7763231D02*
X11759982Y-7791803D01*
X11759982Y-7791803D02*
X11750458Y-7829898D01*
X11750458Y-7829898D02*
X11750458Y-7906088D01*
X11750458Y-7906088D02*
X11759982Y-7925136D01*
X11759982Y-7925136D02*
X11769506Y-7934660D01*
X11769506Y-7934660D02*
X11788553Y-7944184D01*
X11788553Y-7944184D02*
X11826648Y-7944184D01*
X11826648Y-7944184D02*
X11845696Y-7934660D01*
X11845696Y-7934660D02*
X11855220Y-7925136D01*
X11855220Y-7925136D02*
X11864744Y-7906088D01*
X11864744Y-7906088D02*
X11864744Y-7858469D01*
X11864744Y-7858469D02*
X11855220Y-7839422D01*
X11855220Y-7839422D02*
X11845696Y-7829898D01*
X11845696Y-7829898D02*
X11826648Y-7820374D01*
X11826648Y-7820374D02*
X11788553Y-7820374D01*
X11788553Y-7820374D02*
X11769506Y-7829898D01*
X11769506Y-7829898D02*
X11759982Y-7839422D01*
X11759982Y-7839422D02*
X11750458Y-7858469D01*
X11940934Y-7744184D02*
X11940934Y-7782279D01*
X12017125Y-7744184D02*
X12017125Y-7782279D01*
X12312363Y-8020374D02*
X12302839Y-8010850D01*
X12302839Y-8010850D02*
X12283791Y-7982279D01*
X12283791Y-7982279D02*
X12274268Y-7963231D01*
X12274268Y-7963231D02*
X12264744Y-7934660D01*
X12264744Y-7934660D02*
X12255220Y-7887041D01*
X12255220Y-7887041D02*
X12255220Y-7848946D01*
X12255220Y-7848946D02*
X12264744Y-7801327D01*
X12264744Y-7801327D02*
X12274268Y-7772755D01*
X12274268Y-7772755D02*
X12283791Y-7753708D01*
X12283791Y-7753708D02*
X12302839Y-7725136D01*
X12302839Y-7725136D02*
X12312363Y-7715612D01*
X12379029Y-7763231D02*
X12388553Y-7753708D01*
X12388553Y-7753708D02*
X12407601Y-7744184D01*
X12407601Y-7744184D02*
X12455220Y-7744184D01*
X12455220Y-7744184D02*
X12474268Y-7753708D01*
X12474268Y-7753708D02*
X12483791Y-7763231D01*
X12483791Y-7763231D02*
X12493315Y-7782279D01*
X12493315Y-7782279D02*
X12493315Y-7801327D01*
X12493315Y-7801327D02*
X12483791Y-7829898D01*
X12483791Y-7829898D02*
X12369506Y-7944184D01*
X12369506Y-7944184D02*
X12493315Y-7944184D01*
X12731410Y-7944184D02*
X12731410Y-7744184D01*
X12817125Y-7944184D02*
X12817125Y-7839422D01*
X12817125Y-7839422D02*
X12807601Y-7820374D01*
X12807601Y-7820374D02*
X12788553Y-7810850D01*
X12788553Y-7810850D02*
X12759982Y-7810850D01*
X12759982Y-7810850D02*
X12740934Y-7820374D01*
X12740934Y-7820374D02*
X12731410Y-7829898D01*
X12940934Y-7944184D02*
X12921887Y-7934660D01*
X12921887Y-7934660D02*
X12912363Y-7925136D01*
X12912363Y-7925136D02*
X12902839Y-7906088D01*
X12902839Y-7906088D02*
X12902839Y-7848946D01*
X12902839Y-7848946D02*
X12912363Y-7829898D01*
X12912363Y-7829898D02*
X12921887Y-7820374D01*
X12921887Y-7820374D02*
X12940934Y-7810850D01*
X12940934Y-7810850D02*
X12969506Y-7810850D01*
X12969506Y-7810850D02*
X12988553Y-7820374D01*
X12988553Y-7820374D02*
X12998077Y-7829898D01*
X12998077Y-7829898D02*
X13007601Y-7848946D01*
X13007601Y-7848946D02*
X13007601Y-7906088D01*
X13007601Y-7906088D02*
X12998077Y-7925136D01*
X12998077Y-7925136D02*
X12988553Y-7934660D01*
X12988553Y-7934660D02*
X12969506Y-7944184D01*
X12969506Y-7944184D02*
X12940934Y-7944184D01*
X13121887Y-7944184D02*
X13102839Y-7934660D01*
X13102839Y-7934660D02*
X13093315Y-7915612D01*
X13093315Y-7915612D02*
X13093315Y-7744184D01*
X13274268Y-7934660D02*
X13255220Y-7944184D01*
X13255220Y-7944184D02*
X13217125Y-7944184D01*
X13217125Y-7944184D02*
X13198077Y-7934660D01*
X13198077Y-7934660D02*
X13188553Y-7915612D01*
X13188553Y-7915612D02*
X13188553Y-7839422D01*
X13188553Y-7839422D02*
X13198077Y-7820374D01*
X13198077Y-7820374D02*
X13217125Y-7810850D01*
X13217125Y-7810850D02*
X13255220Y-7810850D01*
X13255220Y-7810850D02*
X13274268Y-7820374D01*
X13274268Y-7820374D02*
X13283791Y-7839422D01*
X13283791Y-7839422D02*
X13283791Y-7858469D01*
X13283791Y-7858469D02*
X13188553Y-7877517D01*
X13359982Y-7934660D02*
X13379030Y-7944184D01*
X13379030Y-7944184D02*
X13417125Y-7944184D01*
X13417125Y-7944184D02*
X13436172Y-7934660D01*
X13436172Y-7934660D02*
X13445696Y-7915612D01*
X13445696Y-7915612D02*
X13445696Y-7906088D01*
X13445696Y-7906088D02*
X13436172Y-7887041D01*
X13436172Y-7887041D02*
X13417125Y-7877517D01*
X13417125Y-7877517D02*
X13388553Y-7877517D01*
X13388553Y-7877517D02*
X13369506Y-7867993D01*
X13369506Y-7867993D02*
X13359982Y-7848946D01*
X13359982Y-7848946D02*
X13359982Y-7839422D01*
X13359982Y-7839422D02*
X13369506Y-7820374D01*
X13369506Y-7820374D02*
X13388553Y-7810850D01*
X13388553Y-7810850D02*
X13417125Y-7810850D01*
X13417125Y-7810850D02*
X13436172Y-7820374D01*
X13512363Y-8020374D02*
X13521887Y-8010850D01*
X13521887Y-8010850D02*
X13540934Y-7982279D01*
X13540934Y-7982279D02*
X13550458Y-7963231D01*
X13550458Y-7963231D02*
X13559982Y-7934660D01*
X13559982Y-7934660D02*
X13569506Y-7887041D01*
X13569506Y-7887041D02*
X13569506Y-7848946D01*
X13569506Y-7848946D02*
X13559982Y-7801327D01*
X13559982Y-7801327D02*
X13550458Y-7772755D01*
X13550458Y-7772755D02*
X13540934Y-7753708D01*
X13540934Y-7753708D02*
X13521887Y-7725136D01*
X13521887Y-7725136D02*
X13512363Y-7715612D01*
X13874268Y-8020374D02*
X13864744Y-8010850D01*
X13864744Y-8010850D02*
X13845696Y-7982279D01*
X13845696Y-7982279D02*
X13836172Y-7963231D01*
X13836172Y-7963231D02*
X13826649Y-7934660D01*
X13826649Y-7934660D02*
X13817125Y-7887041D01*
X13817125Y-7887041D02*
X13817125Y-7848946D01*
X13817125Y-7848946D02*
X13826649Y-7801327D01*
X13826649Y-7801327D02*
X13836172Y-7772755D01*
X13836172Y-7772755D02*
X13845696Y-7753708D01*
X13845696Y-7753708D02*
X13864744Y-7725136D01*
X13864744Y-7725136D02*
X13874268Y-7715612D01*
X13950458Y-7810850D02*
X13950458Y-7944184D01*
X13950458Y-7829898D02*
X13959982Y-7820374D01*
X13959982Y-7820374D02*
X13979030Y-7810850D01*
X13979030Y-7810850D02*
X14007601Y-7810850D01*
X14007601Y-7810850D02*
X14026649Y-7820374D01*
X14026649Y-7820374D02*
X14036172Y-7839422D01*
X14036172Y-7839422D02*
X14036172Y-7944184D01*
X14159982Y-7944184D02*
X14140934Y-7934660D01*
X14140934Y-7934660D02*
X14131411Y-7925136D01*
X14131411Y-7925136D02*
X14121887Y-7906088D01*
X14121887Y-7906088D02*
X14121887Y-7848946D01*
X14121887Y-7848946D02*
X14131411Y-7829898D01*
X14131411Y-7829898D02*
X14140934Y-7820374D01*
X14140934Y-7820374D02*
X14159982Y-7810850D01*
X14159982Y-7810850D02*
X14188553Y-7810850D01*
X14188553Y-7810850D02*
X14207601Y-7820374D01*
X14207601Y-7820374D02*
X14217125Y-7829898D01*
X14217125Y-7829898D02*
X14226649Y-7848946D01*
X14226649Y-7848946D02*
X14226649Y-7906088D01*
X14226649Y-7906088D02*
X14217125Y-7925136D01*
X14217125Y-7925136D02*
X14207601Y-7934660D01*
X14207601Y-7934660D02*
X14188553Y-7944184D01*
X14188553Y-7944184D02*
X14159982Y-7944184D01*
X14283792Y-7810850D02*
X14359982Y-7810850D01*
X14312363Y-7744184D02*
X14312363Y-7915612D01*
X14312363Y-7915612D02*
X14321887Y-7934660D01*
X14321887Y-7934660D02*
X14340934Y-7944184D01*
X14340934Y-7944184D02*
X14359982Y-7944184D01*
X14579030Y-7810850D02*
X14579030Y-8010850D01*
X14579030Y-7820374D02*
X14598077Y-7810850D01*
X14598077Y-7810850D02*
X14636173Y-7810850D01*
X14636173Y-7810850D02*
X14655220Y-7820374D01*
X14655220Y-7820374D02*
X14664744Y-7829898D01*
X14664744Y-7829898D02*
X14674268Y-7848946D01*
X14674268Y-7848946D02*
X14674268Y-7906088D01*
X14674268Y-7906088D02*
X14664744Y-7925136D01*
X14664744Y-7925136D02*
X14655220Y-7934660D01*
X14655220Y-7934660D02*
X14636173Y-7944184D01*
X14636173Y-7944184D02*
X14598077Y-7944184D01*
X14598077Y-7944184D02*
X14579030Y-7934660D01*
X14788553Y-7944184D02*
X14769506Y-7934660D01*
X14769506Y-7934660D02*
X14759982Y-7915612D01*
X14759982Y-7915612D02*
X14759982Y-7744184D01*
X14950458Y-7944184D02*
X14950458Y-7839422D01*
X14950458Y-7839422D02*
X14940934Y-7820374D01*
X14940934Y-7820374D02*
X14921887Y-7810850D01*
X14921887Y-7810850D02*
X14883792Y-7810850D01*
X14883792Y-7810850D02*
X14864744Y-7820374D01*
X14950458Y-7934660D02*
X14931411Y-7944184D01*
X14931411Y-7944184D02*
X14883792Y-7944184D01*
X14883792Y-7944184D02*
X14864744Y-7934660D01*
X14864744Y-7934660D02*
X14855220Y-7915612D01*
X14855220Y-7915612D02*
X14855220Y-7896565D01*
X14855220Y-7896565D02*
X14864744Y-7877517D01*
X14864744Y-7877517D02*
X14883792Y-7867993D01*
X14883792Y-7867993D02*
X14931411Y-7867993D01*
X14931411Y-7867993D02*
X14950458Y-7858469D01*
X15017125Y-7810850D02*
X15093315Y-7810850D01*
X15045696Y-7744184D02*
X15045696Y-7915612D01*
X15045696Y-7915612D02*
X15055220Y-7934660D01*
X15055220Y-7934660D02*
X15074268Y-7944184D01*
X15074268Y-7944184D02*
X15093315Y-7944184D01*
X15236173Y-7934660D02*
X15217125Y-7944184D01*
X15217125Y-7944184D02*
X15179030Y-7944184D01*
X15179030Y-7944184D02*
X15159982Y-7934660D01*
X15159982Y-7934660D02*
X15150458Y-7915612D01*
X15150458Y-7915612D02*
X15150458Y-7839422D01*
X15150458Y-7839422D02*
X15159982Y-7820374D01*
X15159982Y-7820374D02*
X15179030Y-7810850D01*
X15179030Y-7810850D02*
X15217125Y-7810850D01*
X15217125Y-7810850D02*
X15236173Y-7820374D01*
X15236173Y-7820374D02*
X15245696Y-7839422D01*
X15245696Y-7839422D02*
X15245696Y-7858469D01*
X15245696Y-7858469D02*
X15150458Y-7877517D01*
X15417125Y-7944184D02*
X15417125Y-7744184D01*
X15417125Y-7934660D02*
X15398077Y-7944184D01*
X15398077Y-7944184D02*
X15359982Y-7944184D01*
X15359982Y-7944184D02*
X15340934Y-7934660D01*
X15340934Y-7934660D02*
X15331411Y-7925136D01*
X15331411Y-7925136D02*
X15321887Y-7906088D01*
X15321887Y-7906088D02*
X15321887Y-7848946D01*
X15321887Y-7848946D02*
X15331411Y-7829898D01*
X15331411Y-7829898D02*
X15340934Y-7820374D01*
X15340934Y-7820374D02*
X15359982Y-7810850D01*
X15359982Y-7810850D02*
X15398077Y-7810850D01*
X15398077Y-7810850D02*
X15417125Y-7820374D01*
X15493315Y-8020374D02*
X15502839Y-8010850D01*
X15502839Y-8010850D02*
X15521887Y-7982279D01*
X15521887Y-7982279D02*
X15531411Y-7963231D01*
X15531411Y-7963231D02*
X15540934Y-7934660D01*
X15540934Y-7934660D02*
X15550458Y-7887041D01*
X15550458Y-7887041D02*
X15550458Y-7848946D01*
X15550458Y-7848946D02*
X15540934Y-7801327D01*
X15540934Y-7801327D02*
X15531411Y-7772755D01*
X15531411Y-7772755D02*
X15521887Y-7753708D01*
X15521887Y-7753708D02*
X15502839Y-7725136D01*
X15502839Y-7725136D02*
X15493315Y-7715612D01*
M02*
