M48
; DRILL file {KiCad 7.0.9} date 
; FORMAT={-:-/ absolute / metric / decimal}
; #@! TF.CreationDate,2023-12-24T12:00:55-08:00
; #@! TF.GenerationSoftware,Kicad,Pcbnew,7.0.9
; #@! TF.FileFunction,Plated,1,4,PTH
FMAT,2
METRIC
; #@! TA.AperFunction,Plated,PTH,ViaDrill
T1C0.300
; #@! TA.AperFunction,Plated,PTH,ComponentDrill
T2C0.600
; #@! TA.AperFunction,Plated,PTH,ComponentDrill
T3C1.000
%
G90
G05
T1
X92.862Y-66.281
X93.116Y-67.843
X93.929Y-61.9
X96.622Y-67.894
X96.825Y-66.231
X97.028Y-44.704
X97.434Y-61.951
X97.917Y-44.298
X98.343Y-41.992
X98.679Y-68.707
X98.755Y-54.813
X98.755Y-59.36
X99.238Y-44.552
X99.822Y-59.36
X100.0Y-44.069
X101.092Y-54.864
X101.092Y-56.896
X101.092Y-58.928
X101.092Y-60.96
X101.448Y-53.746
X101.575Y-45.644
X102.616Y-63.322
X102.715Y-35.461
X102.819Y-48.387
X102.819Y-66.218
X102.997Y-53.34
X103.378Y-47.828
X103.886Y-66.243
X104.013Y-41.275
X104.673Y-32.004
X104.673Y-35.458
X104.877Y-68.631
X105.258Y-39.014
X105.842Y-32.004
X105.918Y-66.294
X106.096Y-39.929
X106.426Y-53.848
X106.578Y-47.422
X106.604Y-61.925
X106.782Y-45.009
X106.934Y-53.086
X107.01Y-59.309
X107.239Y-66.192
X107.391Y-63.322
X107.747Y-36.373
X107.747Y-37.287
X107.747Y-44.069
X107.747Y-52.476
X108.814Y-42.901
X108.966Y-47.193
X109.982Y-46.558
X110.846Y-57.15
X111.023Y-67.437
X111.023Y-68.199
X111.887Y-48.768
X111.912Y-51.257
X112.649Y-42.545
X112.751Y-61.925
X112.776Y-54.508
X112.827Y-52.832
X113.36Y-60.02
X114.351Y-68.326
X114.402Y-66.548
X114.452Y-62.992
X114.833Y-65.278
X119.482Y-50.952
X120.523Y-50.927
T3
X92.54Y-32.0
X92.54Y-34.54
X92.54Y-37.08
X92.54Y-39.62
X92.54Y-42.16
X92.54Y-44.7
X92.54Y-47.24
X92.54Y-49.78
X92.54Y-52.32
X92.54Y-54.86
X92.54Y-57.4
X92.54Y-59.94
X95.08Y-32.0
X95.08Y-34.54
X95.08Y-37.08
X95.08Y-39.62
X95.08Y-42.16
X95.08Y-44.7
X95.08Y-47.24
X95.08Y-49.78
X95.08Y-52.32
X95.08Y-54.86
X95.08Y-57.4
X95.08Y-59.94
X115.4Y-32.0
X115.4Y-34.54
X115.4Y-37.08
X115.4Y-39.62
X115.4Y-42.16
X115.4Y-44.7
X115.4Y-47.24
X115.4Y-49.78
X115.4Y-52.32
X115.4Y-54.86
X115.4Y-57.4
X115.4Y-59.94
X117.94Y-32.0
X117.94Y-34.54
X117.94Y-37.08
X117.94Y-39.62
X117.94Y-42.16
X117.94Y-44.7
X117.94Y-47.24
X117.94Y-49.78
X117.94Y-52.32
X117.94Y-54.86
X117.94Y-57.4
X117.94Y-59.94
T2
X100.68Y-64.325G85X100.68Y-65.425
G05
X100.68Y-68.675G85X100.68Y-69.475
G05
X109.32Y-64.325G85X109.32Y-65.425
G05
X109.32Y-68.675G85X109.32Y-69.475
G05
T0
M30
