%TF.GenerationSoftware,KiCad,Pcbnew,7.0.9*%
%TF.CreationDate,2023-12-24T12:01:44-08:00*%
%TF.ProjectId,stm43f405,73746d34-3366-4343-9035-2e6b69636164,rev?*%
%TF.SameCoordinates,Original*%
%TF.FileFunction,Drillmap*%
%TF.FilePolarity,Positive*%
%FSLAX45Y45*%
G04 Gerber Fmt 4.5, Leading zero omitted, Abs format (unit mm)*
G04 Created by KiCad (PCBNEW 7.0.9) date 2023-12-24 12:01:44*
%MOMM*%
%LPD*%
G01*
G04 APERTURE LIST*
%ADD10C,0.254000*%
%ADD11C,0.200000*%
%ADD12C,0.100000*%
G04 APERTURE END LIST*
D10*
X8750000Y-2900000D02*
X12250000Y-2900000D01*
X12250000Y-7200000D01*
X8750000Y-7200000D01*
X8750000Y-2900000D01*
D11*
D12*
X9271240Y-6613100D02*
X9301240Y-6643100D01*
X9301240Y-6613100D02*
X9271240Y-6643100D01*
X9296640Y-6769340D02*
X9326640Y-6799340D01*
X9326640Y-6769340D02*
X9296640Y-6799340D01*
X9377920Y-6174980D02*
X9407920Y-6204980D01*
X9407920Y-6174980D02*
X9377920Y-6204980D01*
X9647160Y-6774420D02*
X9677160Y-6804420D01*
X9677160Y-6774420D02*
X9647160Y-6804420D01*
X9667480Y-6608100D02*
X9697480Y-6638100D01*
X9697480Y-6608100D02*
X9667480Y-6638100D01*
X9687800Y-4455400D02*
X9717800Y-4485400D01*
X9717800Y-4455400D02*
X9687800Y-4485400D01*
X9728440Y-6180060D02*
X9758440Y-6210060D01*
X9758440Y-6180060D02*
X9728440Y-6210060D01*
X9776700Y-4414760D02*
X9806700Y-4444760D01*
X9806700Y-4414760D02*
X9776700Y-4444760D01*
X9819296Y-4184204D02*
X9849296Y-4214204D01*
X9849296Y-4184204D02*
X9819296Y-4214204D01*
X9852900Y-6855700D02*
X9882900Y-6885700D01*
X9882900Y-6855700D02*
X9852900Y-6885700D01*
X9860520Y-5466320D02*
X9890520Y-5496320D01*
X9890520Y-5466320D02*
X9860520Y-5496320D01*
X9860520Y-5920980D02*
X9890520Y-5950980D01*
X9890520Y-5920980D02*
X9860520Y-5950980D01*
X9908780Y-4440160D02*
X9938780Y-4470160D01*
X9938780Y-4440160D02*
X9908780Y-4470160D01*
X9967200Y-5920980D02*
X9997200Y-5950980D01*
X9997200Y-5920980D02*
X9967200Y-5950980D01*
X9984980Y-4391900D02*
X10014980Y-4421900D01*
X10014980Y-4391900D02*
X9984980Y-4421900D01*
X10094200Y-5471400D02*
X10124200Y-5501400D01*
X10124200Y-5471400D02*
X10094200Y-5501400D01*
X10094200Y-5674600D02*
X10124200Y-5704600D01*
X10124200Y-5674600D02*
X10094200Y-5704600D01*
X10094200Y-5877800D02*
X10124200Y-5907800D01*
X10124200Y-5877800D02*
X10094200Y-5907800D01*
X10094200Y-6081000D02*
X10124200Y-6111000D01*
X10124200Y-6081000D02*
X10094200Y-6111000D01*
X10129760Y-5359640D02*
X10159760Y-5389640D01*
X10159760Y-5359640D02*
X10129760Y-5389640D01*
X10142460Y-4549380D02*
X10172460Y-4579380D01*
X10172460Y-4549380D02*
X10142460Y-4579380D01*
X10246600Y-6317220D02*
X10276600Y-6347220D01*
X10276600Y-6317220D02*
X10246600Y-6347220D01*
X10256500Y-3531100D02*
X10286500Y-3561100D01*
X10286500Y-3531100D02*
X10256500Y-3561100D01*
X10266920Y-4823700D02*
X10296920Y-4853700D01*
X10296920Y-4823700D02*
X10266920Y-4853700D01*
X10266920Y-6606780D02*
X10296920Y-6636780D01*
X10296920Y-6606780D02*
X10266920Y-6636780D01*
X10284700Y-5319000D02*
X10314700Y-5349000D01*
X10314700Y-5319000D02*
X10284700Y-5349000D01*
X10322800Y-4767820D02*
X10352800Y-4797820D01*
X10352800Y-4767820D02*
X10322800Y-4797820D01*
X10373600Y-6609320D02*
X10403600Y-6639320D01*
X10403600Y-6609320D02*
X10373600Y-6639320D01*
X10386300Y-4112500D02*
X10416300Y-4142500D01*
X10416300Y-4112500D02*
X10386300Y-4142500D01*
X10452340Y-3185400D02*
X10482340Y-3215400D01*
X10482340Y-3185400D02*
X10452340Y-3215400D01*
X10452340Y-3530840D02*
X10482340Y-3560840D01*
X10482340Y-3530840D02*
X10452340Y-3560840D01*
X10472660Y-6848080D02*
X10502660Y-6878080D01*
X10502660Y-6848080D02*
X10472660Y-6878080D01*
X10510760Y-3886440D02*
X10540760Y-3916440D01*
X10540760Y-3886440D02*
X10510760Y-3916440D01*
X10569180Y-3185400D02*
X10599180Y-3215400D01*
X10599180Y-3185400D02*
X10569180Y-3215400D01*
X10576800Y-6614400D02*
X10606800Y-6644400D01*
X10606800Y-6614400D02*
X10576800Y-6644400D01*
X10594580Y-3977880D02*
X10624580Y-4007880D01*
X10624580Y-3977880D02*
X10594580Y-4007880D01*
X10627600Y-5369800D02*
X10657600Y-5399800D01*
X10657600Y-5369800D02*
X10627600Y-5399800D01*
X10642840Y-4727180D02*
X10672840Y-4757180D01*
X10672840Y-4727180D02*
X10642840Y-4757180D01*
X10645380Y-6177520D02*
X10675380Y-6207520D01*
X10675380Y-6177520D02*
X10645380Y-6207520D01*
X10663160Y-4485880D02*
X10693160Y-4515880D01*
X10693160Y-4485880D02*
X10663160Y-4515880D01*
X10678400Y-5293600D02*
X10708400Y-5323600D01*
X10708400Y-5293600D02*
X10678400Y-5323600D01*
X10686020Y-5915900D02*
X10716020Y-5945900D01*
X10716020Y-5915900D02*
X10686020Y-5945900D01*
X10708880Y-6604240D02*
X10738880Y-6634240D01*
X10738880Y-6604240D02*
X10708880Y-6634240D01*
X10724120Y-6317220D02*
X10754120Y-6347220D01*
X10754120Y-6317220D02*
X10724120Y-6347220D01*
X10759680Y-3622280D02*
X10789680Y-3652280D01*
X10789680Y-3622280D02*
X10759680Y-3652280D01*
X10759680Y-3713720D02*
X10789680Y-3743720D01*
X10789680Y-3713720D02*
X10759680Y-3743720D01*
X10759680Y-4391900D02*
X10789680Y-4421900D01*
X10789680Y-4391900D02*
X10759680Y-4421900D01*
X10759680Y-5232640D02*
X10789680Y-5262640D01*
X10789680Y-5232640D02*
X10759680Y-5262640D01*
X10866360Y-4275060D02*
X10896360Y-4305060D01*
X10896360Y-4275060D02*
X10866360Y-4305060D01*
X10881600Y-4704320D02*
X10911600Y-4734320D01*
X10911600Y-4704320D02*
X10881600Y-4734320D01*
X10983200Y-4640820D02*
X11013200Y-4670820D01*
X11013200Y-4640820D02*
X10983200Y-4670820D01*
X11069560Y-5700000D02*
X11099560Y-5730000D01*
X11099560Y-5700000D02*
X11069560Y-5730000D01*
X11087340Y-6728700D02*
X11117340Y-6758700D01*
X11117340Y-6728700D02*
X11087340Y-6758700D01*
X11087340Y-6804900D02*
X11117340Y-6834900D01*
X11117340Y-6804900D02*
X11087340Y-6834900D01*
X11173700Y-4861800D02*
X11203700Y-4891800D01*
X11203700Y-4861800D02*
X11173700Y-4891800D01*
X11176240Y-5110720D02*
X11206240Y-5140720D01*
X11206240Y-5110720D02*
X11176240Y-5140720D01*
X11249900Y-4239500D02*
X11279900Y-4269500D01*
X11279900Y-4239500D02*
X11249900Y-4269500D01*
X11260060Y-6177520D02*
X11290060Y-6207520D01*
X11290060Y-6177520D02*
X11260060Y-6207520D01*
X11262600Y-5435840D02*
X11292600Y-5465840D01*
X11292600Y-5435840D02*
X11262600Y-5465840D01*
X11267680Y-5268200D02*
X11297680Y-5298200D01*
X11297680Y-5268200D02*
X11267680Y-5298200D01*
X11321020Y-5987020D02*
X11351020Y-6017020D01*
X11351020Y-5987020D02*
X11321020Y-6017020D01*
X11420080Y-6817600D02*
X11450080Y-6847600D01*
X11450080Y-6817600D02*
X11420080Y-6847600D01*
X11425160Y-6639800D02*
X11455160Y-6669800D01*
X11455160Y-6639800D02*
X11425160Y-6669800D01*
X11430240Y-6284200D02*
X11460240Y-6314200D01*
X11460240Y-6284200D02*
X11430240Y-6314200D01*
X11468340Y-6512800D02*
X11498340Y-6542800D01*
X11498340Y-6512800D02*
X11468340Y-6542800D01*
X11933160Y-5080240D02*
X11963160Y-5110240D01*
X11963160Y-5080240D02*
X11933160Y-5110240D01*
X12037300Y-5077700D02*
X12067300Y-5107700D01*
X12067300Y-5077700D02*
X12037300Y-5107700D01*
X10098000Y-6487500D02*
G75*
G03*
X10098000Y-6487500I-30000J0D01*
G01*
X10038000Y-6432500D02*
X10038000Y-6542500D01*
X10038000Y-6542500D02*
G75*
G03*
X10098000Y-6542500I30000J0D01*
G01*
X10098000Y-6542500D02*
X10098000Y-6432500D01*
X10098000Y-6432500D02*
G75*
G03*
X10038000Y-6432500I-30000J0D01*
G01*
X10098000Y-6907500D02*
G75*
G03*
X10098000Y-6907500I-30000J0D01*
G01*
X10038000Y-6867500D02*
X10038000Y-6947500D01*
X10038000Y-6947500D02*
G75*
G03*
X10098000Y-6947500I30000J0D01*
G01*
X10098000Y-6947500D02*
X10098000Y-6867500D01*
X10098000Y-6867500D02*
G75*
G03*
X10038000Y-6867500I-30000J0D01*
G01*
X10962000Y-6487500D02*
G75*
G03*
X10962000Y-6487500I-30000J0D01*
G01*
X10902000Y-6432500D02*
X10902000Y-6542500D01*
X10902000Y-6542500D02*
G75*
G03*
X10962000Y-6542500I30000J0D01*
G01*
X10962000Y-6542500D02*
X10962000Y-6432500D01*
X10962000Y-6432500D02*
G75*
G03*
X10902000Y-6432500I-30000J0D01*
G01*
X10962000Y-6907500D02*
G75*
G03*
X10962000Y-6907500I-30000J0D01*
G01*
X10902000Y-6867500D02*
X10902000Y-6947500D01*
X10902000Y-6947500D02*
G75*
G03*
X10962000Y-6947500I30000J0D01*
G01*
X10962000Y-6947500D02*
X10962000Y-6867500D01*
X10962000Y-6867500D02*
G75*
G03*
X10902000Y-6867500I-30000J0D01*
G01*
X9254000Y-3150000D02*
X9254000Y-3250000D01*
X9204000Y-3200000D02*
X9304000Y-3200000D01*
X9254000Y-3404000D02*
X9254000Y-3504000D01*
X9204000Y-3454000D02*
X9304000Y-3454000D01*
X9254000Y-3658000D02*
X9254000Y-3758000D01*
X9204000Y-3708000D02*
X9304000Y-3708000D01*
X9254000Y-3912000D02*
X9254000Y-4012000D01*
X9204000Y-3962000D02*
X9304000Y-3962000D01*
X9254000Y-4166000D02*
X9254000Y-4266000D01*
X9204000Y-4216000D02*
X9304000Y-4216000D01*
X9254000Y-4420000D02*
X9254000Y-4520000D01*
X9204000Y-4470000D02*
X9304000Y-4470000D01*
X9254000Y-4674000D02*
X9254000Y-4774000D01*
X9204000Y-4724000D02*
X9304000Y-4724000D01*
X9254000Y-4928000D02*
X9254000Y-5028000D01*
X9204000Y-4978000D02*
X9304000Y-4978000D01*
X9254000Y-5182000D02*
X9254000Y-5282000D01*
X9204000Y-5232000D02*
X9304000Y-5232000D01*
X9254000Y-5436000D02*
X9254000Y-5536000D01*
X9204000Y-5486000D02*
X9304000Y-5486000D01*
X9254000Y-5690000D02*
X9254000Y-5790000D01*
X9204000Y-5740000D02*
X9304000Y-5740000D01*
X9254000Y-5944000D02*
X9254000Y-6044000D01*
X9204000Y-5994000D02*
X9304000Y-5994000D01*
X9508000Y-3150000D02*
X9508000Y-3250000D01*
X9458000Y-3200000D02*
X9558000Y-3200000D01*
X9508000Y-3404000D02*
X9508000Y-3504000D01*
X9458000Y-3454000D02*
X9558000Y-3454000D01*
X9508000Y-3658000D02*
X9508000Y-3758000D01*
X9458000Y-3708000D02*
X9558000Y-3708000D01*
X9508000Y-3912000D02*
X9508000Y-4012000D01*
X9458000Y-3962000D02*
X9558000Y-3962000D01*
X9508000Y-4166000D02*
X9508000Y-4266000D01*
X9458000Y-4216000D02*
X9558000Y-4216000D01*
X9508000Y-4420000D02*
X9508000Y-4520000D01*
X9458000Y-4470000D02*
X9558000Y-4470000D01*
X9508000Y-4674000D02*
X9508000Y-4774000D01*
X9458000Y-4724000D02*
X9558000Y-4724000D01*
X9508000Y-4928000D02*
X9508000Y-5028000D01*
X9458000Y-4978000D02*
X9558000Y-4978000D01*
X9508000Y-5182000D02*
X9508000Y-5282000D01*
X9458000Y-5232000D02*
X9558000Y-5232000D01*
X9508000Y-5436000D02*
X9508000Y-5536000D01*
X9458000Y-5486000D02*
X9558000Y-5486000D01*
X9508000Y-5690000D02*
X9508000Y-5790000D01*
X9458000Y-5740000D02*
X9558000Y-5740000D01*
X9508000Y-5944000D02*
X9508000Y-6044000D01*
X9458000Y-5994000D02*
X9558000Y-5994000D01*
X11540000Y-3150000D02*
X11540000Y-3250000D01*
X11490000Y-3200000D02*
X11590000Y-3200000D01*
X11540000Y-3404000D02*
X11540000Y-3504000D01*
X11490000Y-3454000D02*
X11590000Y-3454000D01*
X11540000Y-3658000D02*
X11540000Y-3758000D01*
X11490000Y-3708000D02*
X11590000Y-3708000D01*
X11540000Y-3912000D02*
X11540000Y-4012000D01*
X11490000Y-3962000D02*
X11590000Y-3962000D01*
X11540000Y-4166000D02*
X11540000Y-4266000D01*
X11490000Y-4216000D02*
X11590000Y-4216000D01*
X11540000Y-4420000D02*
X11540000Y-4520000D01*
X11490000Y-4470000D02*
X11590000Y-4470000D01*
X11540000Y-4674000D02*
X11540000Y-4774000D01*
X11490000Y-4724000D02*
X11590000Y-4724000D01*
X11540000Y-4928000D02*
X11540000Y-5028000D01*
X11490000Y-4978000D02*
X11590000Y-4978000D01*
X11540000Y-5182000D02*
X11540000Y-5282000D01*
X11490000Y-5232000D02*
X11590000Y-5232000D01*
X11540000Y-5436000D02*
X11540000Y-5536000D01*
X11490000Y-5486000D02*
X11590000Y-5486000D01*
X11540000Y-5690000D02*
X11540000Y-5790000D01*
X11490000Y-5740000D02*
X11590000Y-5740000D01*
X11540000Y-5944000D02*
X11540000Y-6044000D01*
X11490000Y-5994000D02*
X11590000Y-5994000D01*
X11794000Y-3150000D02*
X11794000Y-3250000D01*
X11744000Y-3200000D02*
X11844000Y-3200000D01*
X11794000Y-3404000D02*
X11794000Y-3504000D01*
X11744000Y-3454000D02*
X11844000Y-3454000D01*
X11794000Y-3658000D02*
X11794000Y-3758000D01*
X11744000Y-3708000D02*
X11844000Y-3708000D01*
X11794000Y-3912000D02*
X11794000Y-4012000D01*
X11744000Y-3962000D02*
X11844000Y-3962000D01*
X11794000Y-4166000D02*
X11794000Y-4266000D01*
X11744000Y-4216000D02*
X11844000Y-4216000D01*
X11794000Y-4420000D02*
X11794000Y-4520000D01*
X11744000Y-4470000D02*
X11844000Y-4470000D01*
X11794000Y-4674000D02*
X11794000Y-4774000D01*
X11744000Y-4724000D02*
X11844000Y-4724000D01*
X11794000Y-4928000D02*
X11794000Y-5028000D01*
X11744000Y-4978000D02*
X11844000Y-4978000D01*
X11794000Y-5182000D02*
X11794000Y-5282000D01*
X11744000Y-5232000D02*
X11844000Y-5232000D01*
X11794000Y-5436000D02*
X11794000Y-5536000D01*
X11744000Y-5486000D02*
X11844000Y-5486000D01*
X11794000Y-5690000D02*
X11794000Y-5790000D01*
X11744000Y-5740000D02*
X11844000Y-5740000D01*
X11794000Y-5944000D02*
X11794000Y-6044000D01*
X11744000Y-5994000D02*
X11844000Y-5994000D01*
D11*
X8998077Y-7524184D02*
X8998077Y-7324184D01*
X8998077Y-7324184D02*
X9045696Y-7324184D01*
X9045696Y-7324184D02*
X9074267Y-7333708D01*
X9074267Y-7333708D02*
X9093315Y-7352755D01*
X9093315Y-7352755D02*
X9102839Y-7371803D01*
X9102839Y-7371803D02*
X9112363Y-7409898D01*
X9112363Y-7409898D02*
X9112363Y-7438469D01*
X9112363Y-7438469D02*
X9102839Y-7476565D01*
X9102839Y-7476565D02*
X9093315Y-7495612D01*
X9093315Y-7495612D02*
X9074267Y-7514660D01*
X9074267Y-7514660D02*
X9045696Y-7524184D01*
X9045696Y-7524184D02*
X8998077Y-7524184D01*
X9198077Y-7524184D02*
X9198077Y-7390850D01*
X9198077Y-7428946D02*
X9207601Y-7409898D01*
X9207601Y-7409898D02*
X9217124Y-7400374D01*
X9217124Y-7400374D02*
X9236172Y-7390850D01*
X9236172Y-7390850D02*
X9255220Y-7390850D01*
X9321886Y-7524184D02*
X9321886Y-7390850D01*
X9321886Y-7324184D02*
X9312363Y-7333708D01*
X9312363Y-7333708D02*
X9321886Y-7343231D01*
X9321886Y-7343231D02*
X9331410Y-7333708D01*
X9331410Y-7333708D02*
X9321886Y-7324184D01*
X9321886Y-7324184D02*
X9321886Y-7343231D01*
X9445696Y-7524184D02*
X9426648Y-7514660D01*
X9426648Y-7514660D02*
X9417124Y-7495612D01*
X9417124Y-7495612D02*
X9417124Y-7324184D01*
X9550458Y-7524184D02*
X9531410Y-7514660D01*
X9531410Y-7514660D02*
X9521886Y-7495612D01*
X9521886Y-7495612D02*
X9521886Y-7324184D01*
X9779029Y-7524184D02*
X9779029Y-7324184D01*
X9779029Y-7324184D02*
X9845696Y-7467041D01*
X9845696Y-7467041D02*
X9912363Y-7324184D01*
X9912363Y-7324184D02*
X9912363Y-7524184D01*
X10093315Y-7524184D02*
X10093315Y-7419422D01*
X10093315Y-7419422D02*
X10083791Y-7400374D01*
X10083791Y-7400374D02*
X10064744Y-7390850D01*
X10064744Y-7390850D02*
X10026648Y-7390850D01*
X10026648Y-7390850D02*
X10007601Y-7400374D01*
X10093315Y-7514660D02*
X10074267Y-7524184D01*
X10074267Y-7524184D02*
X10026648Y-7524184D01*
X10026648Y-7524184D02*
X10007601Y-7514660D01*
X10007601Y-7514660D02*
X9998077Y-7495612D01*
X9998077Y-7495612D02*
X9998077Y-7476565D01*
X9998077Y-7476565D02*
X10007601Y-7457517D01*
X10007601Y-7457517D02*
X10026648Y-7447993D01*
X10026648Y-7447993D02*
X10074267Y-7447993D01*
X10074267Y-7447993D02*
X10093315Y-7438469D01*
X10188553Y-7390850D02*
X10188553Y-7590850D01*
X10188553Y-7400374D02*
X10207601Y-7390850D01*
X10207601Y-7390850D02*
X10245696Y-7390850D01*
X10245696Y-7390850D02*
X10264744Y-7400374D01*
X10264744Y-7400374D02*
X10274267Y-7409898D01*
X10274267Y-7409898D02*
X10283791Y-7428946D01*
X10283791Y-7428946D02*
X10283791Y-7486088D01*
X10283791Y-7486088D02*
X10274267Y-7505136D01*
X10274267Y-7505136D02*
X10264744Y-7514660D01*
X10264744Y-7514660D02*
X10245696Y-7524184D01*
X10245696Y-7524184D02*
X10207601Y-7524184D01*
X10207601Y-7524184D02*
X10188553Y-7514660D01*
X10369505Y-7505136D02*
X10379029Y-7514660D01*
X10379029Y-7514660D02*
X10369505Y-7524184D01*
X10369505Y-7524184D02*
X10359982Y-7514660D01*
X10359982Y-7514660D02*
X10369505Y-7505136D01*
X10369505Y-7505136D02*
X10369505Y-7524184D01*
X10369505Y-7400374D02*
X10379029Y-7409898D01*
X10379029Y-7409898D02*
X10369505Y-7419422D01*
X10369505Y-7419422D02*
X10359982Y-7409898D01*
X10359982Y-7409898D02*
X10369505Y-7400374D01*
X10369505Y-7400374D02*
X10369505Y-7419422D01*
D12*
X8707300Y-7837700D02*
X8737300Y-7867700D01*
X8737300Y-7837700D02*
X8707300Y-7867700D01*
D11*
X9036172Y-7744184D02*
X9055220Y-7744184D01*
X9055220Y-7744184D02*
X9074267Y-7753708D01*
X9074267Y-7753708D02*
X9083791Y-7763231D01*
X9083791Y-7763231D02*
X9093315Y-7782279D01*
X9093315Y-7782279D02*
X9102839Y-7820374D01*
X9102839Y-7820374D02*
X9102839Y-7867993D01*
X9102839Y-7867993D02*
X9093315Y-7906088D01*
X9093315Y-7906088D02*
X9083791Y-7925136D01*
X9083791Y-7925136D02*
X9074267Y-7934660D01*
X9074267Y-7934660D02*
X9055220Y-7944184D01*
X9055220Y-7944184D02*
X9036172Y-7944184D01*
X9036172Y-7944184D02*
X9017124Y-7934660D01*
X9017124Y-7934660D02*
X9007601Y-7925136D01*
X9007601Y-7925136D02*
X8998077Y-7906088D01*
X8998077Y-7906088D02*
X8988553Y-7867993D01*
X8988553Y-7867993D02*
X8988553Y-7820374D01*
X8988553Y-7820374D02*
X8998077Y-7782279D01*
X8998077Y-7782279D02*
X9007601Y-7763231D01*
X9007601Y-7763231D02*
X9017124Y-7753708D01*
X9017124Y-7753708D02*
X9036172Y-7744184D01*
X9188553Y-7925136D02*
X9198077Y-7934660D01*
X9198077Y-7934660D02*
X9188553Y-7944184D01*
X9188553Y-7944184D02*
X9179029Y-7934660D01*
X9179029Y-7934660D02*
X9188553Y-7925136D01*
X9188553Y-7925136D02*
X9188553Y-7944184D01*
X9264744Y-7744184D02*
X9388553Y-7744184D01*
X9388553Y-7744184D02*
X9321886Y-7820374D01*
X9321886Y-7820374D02*
X9350458Y-7820374D01*
X9350458Y-7820374D02*
X9369505Y-7829898D01*
X9369505Y-7829898D02*
X9379029Y-7839422D01*
X9379029Y-7839422D02*
X9388553Y-7858469D01*
X9388553Y-7858469D02*
X9388553Y-7906088D01*
X9388553Y-7906088D02*
X9379029Y-7925136D01*
X9379029Y-7925136D02*
X9369505Y-7934660D01*
X9369505Y-7934660D02*
X9350458Y-7944184D01*
X9350458Y-7944184D02*
X9293315Y-7944184D01*
X9293315Y-7944184D02*
X9274267Y-7934660D01*
X9274267Y-7934660D02*
X9264744Y-7925136D01*
X9512363Y-7744184D02*
X9531410Y-7744184D01*
X9531410Y-7744184D02*
X9550458Y-7753708D01*
X9550458Y-7753708D02*
X9559982Y-7763231D01*
X9559982Y-7763231D02*
X9569505Y-7782279D01*
X9569505Y-7782279D02*
X9579029Y-7820374D01*
X9579029Y-7820374D02*
X9579029Y-7867993D01*
X9579029Y-7867993D02*
X9569505Y-7906088D01*
X9569505Y-7906088D02*
X9559982Y-7925136D01*
X9559982Y-7925136D02*
X9550458Y-7934660D01*
X9550458Y-7934660D02*
X9531410Y-7944184D01*
X9531410Y-7944184D02*
X9512363Y-7944184D01*
X9512363Y-7944184D02*
X9493315Y-7934660D01*
X9493315Y-7934660D02*
X9483791Y-7925136D01*
X9483791Y-7925136D02*
X9474267Y-7906088D01*
X9474267Y-7906088D02*
X9464744Y-7867993D01*
X9464744Y-7867993D02*
X9464744Y-7820374D01*
X9464744Y-7820374D02*
X9474267Y-7782279D01*
X9474267Y-7782279D02*
X9483791Y-7763231D01*
X9483791Y-7763231D02*
X9493315Y-7753708D01*
X9493315Y-7753708D02*
X9512363Y-7744184D01*
X9702839Y-7744184D02*
X9721886Y-7744184D01*
X9721886Y-7744184D02*
X9740934Y-7753708D01*
X9740934Y-7753708D02*
X9750458Y-7763231D01*
X9750458Y-7763231D02*
X9759982Y-7782279D01*
X9759982Y-7782279D02*
X9769505Y-7820374D01*
X9769505Y-7820374D02*
X9769505Y-7867993D01*
X9769505Y-7867993D02*
X9759982Y-7906088D01*
X9759982Y-7906088D02*
X9750458Y-7925136D01*
X9750458Y-7925136D02*
X9740934Y-7934660D01*
X9740934Y-7934660D02*
X9721886Y-7944184D01*
X9721886Y-7944184D02*
X9702839Y-7944184D01*
X9702839Y-7944184D02*
X9683791Y-7934660D01*
X9683791Y-7934660D02*
X9674267Y-7925136D01*
X9674267Y-7925136D02*
X9664744Y-7906088D01*
X9664744Y-7906088D02*
X9655220Y-7867993D01*
X9655220Y-7867993D02*
X9655220Y-7820374D01*
X9655220Y-7820374D02*
X9664744Y-7782279D01*
X9664744Y-7782279D02*
X9674267Y-7763231D01*
X9674267Y-7763231D02*
X9683791Y-7753708D01*
X9683791Y-7753708D02*
X9702839Y-7744184D01*
X9855220Y-7944184D02*
X9855220Y-7810850D01*
X9855220Y-7829898D02*
X9864744Y-7820374D01*
X9864744Y-7820374D02*
X9883791Y-7810850D01*
X9883791Y-7810850D02*
X9912363Y-7810850D01*
X9912363Y-7810850D02*
X9931410Y-7820374D01*
X9931410Y-7820374D02*
X9940934Y-7839422D01*
X9940934Y-7839422D02*
X9940934Y-7944184D01*
X9940934Y-7839422D02*
X9950458Y-7820374D01*
X9950458Y-7820374D02*
X9969505Y-7810850D01*
X9969505Y-7810850D02*
X9998077Y-7810850D01*
X9998077Y-7810850D02*
X10017125Y-7820374D01*
X10017125Y-7820374D02*
X10026648Y-7839422D01*
X10026648Y-7839422D02*
X10026648Y-7944184D01*
X10121886Y-7944184D02*
X10121886Y-7810850D01*
X10121886Y-7829898D02*
X10131410Y-7820374D01*
X10131410Y-7820374D02*
X10150458Y-7810850D01*
X10150458Y-7810850D02*
X10179029Y-7810850D01*
X10179029Y-7810850D02*
X10198077Y-7820374D01*
X10198077Y-7820374D02*
X10207601Y-7839422D01*
X10207601Y-7839422D02*
X10207601Y-7944184D01*
X10207601Y-7839422D02*
X10217125Y-7820374D01*
X10217125Y-7820374D02*
X10236172Y-7810850D01*
X10236172Y-7810850D02*
X10264744Y-7810850D01*
X10264744Y-7810850D02*
X10283791Y-7820374D01*
X10283791Y-7820374D02*
X10293315Y-7839422D01*
X10293315Y-7839422D02*
X10293315Y-7944184D01*
X10683791Y-7734660D02*
X10512363Y-7991803D01*
X10940934Y-7744184D02*
X10959982Y-7744184D01*
X10959982Y-7744184D02*
X10979029Y-7753708D01*
X10979029Y-7753708D02*
X10988553Y-7763231D01*
X10988553Y-7763231D02*
X10998077Y-7782279D01*
X10998077Y-7782279D02*
X11007601Y-7820374D01*
X11007601Y-7820374D02*
X11007601Y-7867993D01*
X11007601Y-7867993D02*
X10998077Y-7906088D01*
X10998077Y-7906088D02*
X10988553Y-7925136D01*
X10988553Y-7925136D02*
X10979029Y-7934660D01*
X10979029Y-7934660D02*
X10959982Y-7944184D01*
X10959982Y-7944184D02*
X10940934Y-7944184D01*
X10940934Y-7944184D02*
X10921887Y-7934660D01*
X10921887Y-7934660D02*
X10912363Y-7925136D01*
X10912363Y-7925136D02*
X10902839Y-7906088D01*
X10902839Y-7906088D02*
X10893315Y-7867993D01*
X10893315Y-7867993D02*
X10893315Y-7820374D01*
X10893315Y-7820374D02*
X10902839Y-7782279D01*
X10902839Y-7782279D02*
X10912363Y-7763231D01*
X10912363Y-7763231D02*
X10921887Y-7753708D01*
X10921887Y-7753708D02*
X10940934Y-7744184D01*
X11093315Y-7925136D02*
X11102839Y-7934660D01*
X11102839Y-7934660D02*
X11093315Y-7944184D01*
X11093315Y-7944184D02*
X11083791Y-7934660D01*
X11083791Y-7934660D02*
X11093315Y-7925136D01*
X11093315Y-7925136D02*
X11093315Y-7944184D01*
X11226648Y-7744184D02*
X11245696Y-7744184D01*
X11245696Y-7744184D02*
X11264744Y-7753708D01*
X11264744Y-7753708D02*
X11274267Y-7763231D01*
X11274267Y-7763231D02*
X11283791Y-7782279D01*
X11283791Y-7782279D02*
X11293315Y-7820374D01*
X11293315Y-7820374D02*
X11293315Y-7867993D01*
X11293315Y-7867993D02*
X11283791Y-7906088D01*
X11283791Y-7906088D02*
X11274267Y-7925136D01*
X11274267Y-7925136D02*
X11264744Y-7934660D01*
X11264744Y-7934660D02*
X11245696Y-7944184D01*
X11245696Y-7944184D02*
X11226648Y-7944184D01*
X11226648Y-7944184D02*
X11207601Y-7934660D01*
X11207601Y-7934660D02*
X11198077Y-7925136D01*
X11198077Y-7925136D02*
X11188553Y-7906088D01*
X11188553Y-7906088D02*
X11179029Y-7867993D01*
X11179029Y-7867993D02*
X11179029Y-7820374D01*
X11179029Y-7820374D02*
X11188553Y-7782279D01*
X11188553Y-7782279D02*
X11198077Y-7763231D01*
X11198077Y-7763231D02*
X11207601Y-7753708D01*
X11207601Y-7753708D02*
X11226648Y-7744184D01*
X11483791Y-7944184D02*
X11369506Y-7944184D01*
X11426648Y-7944184D02*
X11426648Y-7744184D01*
X11426648Y-7744184D02*
X11407601Y-7772755D01*
X11407601Y-7772755D02*
X11388553Y-7791803D01*
X11388553Y-7791803D02*
X11369506Y-7801327D01*
X11674267Y-7944184D02*
X11559982Y-7944184D01*
X11617125Y-7944184D02*
X11617125Y-7744184D01*
X11617125Y-7744184D02*
X11598077Y-7772755D01*
X11598077Y-7772755D02*
X11579029Y-7791803D01*
X11579029Y-7791803D02*
X11559982Y-7801327D01*
X11788553Y-7829898D02*
X11769506Y-7820374D01*
X11769506Y-7820374D02*
X11759982Y-7810850D01*
X11759982Y-7810850D02*
X11750458Y-7791803D01*
X11750458Y-7791803D02*
X11750458Y-7782279D01*
X11750458Y-7782279D02*
X11759982Y-7763231D01*
X11759982Y-7763231D02*
X11769506Y-7753708D01*
X11769506Y-7753708D02*
X11788553Y-7744184D01*
X11788553Y-7744184D02*
X11826648Y-7744184D01*
X11826648Y-7744184D02*
X11845696Y-7753708D01*
X11845696Y-7753708D02*
X11855220Y-7763231D01*
X11855220Y-7763231D02*
X11864744Y-7782279D01*
X11864744Y-7782279D02*
X11864744Y-7791803D01*
X11864744Y-7791803D02*
X11855220Y-7810850D01*
X11855220Y-7810850D02*
X11845696Y-7820374D01*
X11845696Y-7820374D02*
X11826648Y-7829898D01*
X11826648Y-7829898D02*
X11788553Y-7829898D01*
X11788553Y-7829898D02*
X11769506Y-7839422D01*
X11769506Y-7839422D02*
X11759982Y-7848946D01*
X11759982Y-7848946D02*
X11750458Y-7867993D01*
X11750458Y-7867993D02*
X11750458Y-7906088D01*
X11750458Y-7906088D02*
X11759982Y-7925136D01*
X11759982Y-7925136D02*
X11769506Y-7934660D01*
X11769506Y-7934660D02*
X11788553Y-7944184D01*
X11788553Y-7944184D02*
X11826648Y-7944184D01*
X11826648Y-7944184D02*
X11845696Y-7934660D01*
X11845696Y-7934660D02*
X11855220Y-7925136D01*
X11855220Y-7925136D02*
X11864744Y-7906088D01*
X11864744Y-7906088D02*
X11864744Y-7867993D01*
X11864744Y-7867993D02*
X11855220Y-7848946D01*
X11855220Y-7848946D02*
X11845696Y-7839422D01*
X11845696Y-7839422D02*
X11826648Y-7829898D01*
X11940934Y-7744184D02*
X11940934Y-7782279D01*
X12017125Y-7744184D02*
X12017125Y-7782279D01*
X12312363Y-8020374D02*
X12302839Y-8010850D01*
X12302839Y-8010850D02*
X12283791Y-7982279D01*
X12283791Y-7982279D02*
X12274268Y-7963231D01*
X12274268Y-7963231D02*
X12264744Y-7934660D01*
X12264744Y-7934660D02*
X12255220Y-7887041D01*
X12255220Y-7887041D02*
X12255220Y-7848946D01*
X12255220Y-7848946D02*
X12264744Y-7801327D01*
X12264744Y-7801327D02*
X12274268Y-7772755D01*
X12274268Y-7772755D02*
X12283791Y-7753708D01*
X12283791Y-7753708D02*
X12302839Y-7725136D01*
X12302839Y-7725136D02*
X12312363Y-7715612D01*
X12474268Y-7744184D02*
X12436172Y-7744184D01*
X12436172Y-7744184D02*
X12417125Y-7753708D01*
X12417125Y-7753708D02*
X12407601Y-7763231D01*
X12407601Y-7763231D02*
X12388553Y-7791803D01*
X12388553Y-7791803D02*
X12379029Y-7829898D01*
X12379029Y-7829898D02*
X12379029Y-7906088D01*
X12379029Y-7906088D02*
X12388553Y-7925136D01*
X12388553Y-7925136D02*
X12398077Y-7934660D01*
X12398077Y-7934660D02*
X12417125Y-7944184D01*
X12417125Y-7944184D02*
X12455220Y-7944184D01*
X12455220Y-7944184D02*
X12474268Y-7934660D01*
X12474268Y-7934660D02*
X12483791Y-7925136D01*
X12483791Y-7925136D02*
X12493315Y-7906088D01*
X12493315Y-7906088D02*
X12493315Y-7858469D01*
X12493315Y-7858469D02*
X12483791Y-7839422D01*
X12483791Y-7839422D02*
X12474268Y-7829898D01*
X12474268Y-7829898D02*
X12455220Y-7820374D01*
X12455220Y-7820374D02*
X12417125Y-7820374D01*
X12417125Y-7820374D02*
X12398077Y-7829898D01*
X12398077Y-7829898D02*
X12388553Y-7839422D01*
X12388553Y-7839422D02*
X12379029Y-7858469D01*
X12559982Y-7744184D02*
X12693315Y-7744184D01*
X12693315Y-7744184D02*
X12607601Y-7944184D01*
X12921887Y-7944184D02*
X12921887Y-7744184D01*
X13007601Y-7944184D02*
X13007601Y-7839422D01*
X13007601Y-7839422D02*
X12998077Y-7820374D01*
X12998077Y-7820374D02*
X12979030Y-7810850D01*
X12979030Y-7810850D02*
X12950458Y-7810850D01*
X12950458Y-7810850D02*
X12931410Y-7820374D01*
X12931410Y-7820374D02*
X12921887Y-7829898D01*
X13131410Y-7944184D02*
X13112363Y-7934660D01*
X13112363Y-7934660D02*
X13102839Y-7925136D01*
X13102839Y-7925136D02*
X13093315Y-7906088D01*
X13093315Y-7906088D02*
X13093315Y-7848946D01*
X13093315Y-7848946D02*
X13102839Y-7829898D01*
X13102839Y-7829898D02*
X13112363Y-7820374D01*
X13112363Y-7820374D02*
X13131410Y-7810850D01*
X13131410Y-7810850D02*
X13159982Y-7810850D01*
X13159982Y-7810850D02*
X13179030Y-7820374D01*
X13179030Y-7820374D02*
X13188553Y-7829898D01*
X13188553Y-7829898D02*
X13198077Y-7848946D01*
X13198077Y-7848946D02*
X13198077Y-7906088D01*
X13198077Y-7906088D02*
X13188553Y-7925136D01*
X13188553Y-7925136D02*
X13179030Y-7934660D01*
X13179030Y-7934660D02*
X13159982Y-7944184D01*
X13159982Y-7944184D02*
X13131410Y-7944184D01*
X13312363Y-7944184D02*
X13293315Y-7934660D01*
X13293315Y-7934660D02*
X13283791Y-7915612D01*
X13283791Y-7915612D02*
X13283791Y-7744184D01*
X13464744Y-7934660D02*
X13445696Y-7944184D01*
X13445696Y-7944184D02*
X13407601Y-7944184D01*
X13407601Y-7944184D02*
X13388553Y-7934660D01*
X13388553Y-7934660D02*
X13379030Y-7915612D01*
X13379030Y-7915612D02*
X13379030Y-7839422D01*
X13379030Y-7839422D02*
X13388553Y-7820374D01*
X13388553Y-7820374D02*
X13407601Y-7810850D01*
X13407601Y-7810850D02*
X13445696Y-7810850D01*
X13445696Y-7810850D02*
X13464744Y-7820374D01*
X13464744Y-7820374D02*
X13474268Y-7839422D01*
X13474268Y-7839422D02*
X13474268Y-7858469D01*
X13474268Y-7858469D02*
X13379030Y-7877517D01*
X13550458Y-7934660D02*
X13569506Y-7944184D01*
X13569506Y-7944184D02*
X13607601Y-7944184D01*
X13607601Y-7944184D02*
X13626649Y-7934660D01*
X13626649Y-7934660D02*
X13636172Y-7915612D01*
X13636172Y-7915612D02*
X13636172Y-7906088D01*
X13636172Y-7906088D02*
X13626649Y-7887041D01*
X13626649Y-7887041D02*
X13607601Y-7877517D01*
X13607601Y-7877517D02*
X13579030Y-7877517D01*
X13579030Y-7877517D02*
X13559982Y-7867993D01*
X13559982Y-7867993D02*
X13550458Y-7848946D01*
X13550458Y-7848946D02*
X13550458Y-7839422D01*
X13550458Y-7839422D02*
X13559982Y-7820374D01*
X13559982Y-7820374D02*
X13579030Y-7810850D01*
X13579030Y-7810850D02*
X13607601Y-7810850D01*
X13607601Y-7810850D02*
X13626649Y-7820374D01*
X13702839Y-8020374D02*
X13712363Y-8010850D01*
X13712363Y-8010850D02*
X13731411Y-7982279D01*
X13731411Y-7982279D02*
X13740934Y-7963231D01*
X13740934Y-7963231D02*
X13750458Y-7934660D01*
X13750458Y-7934660D02*
X13759982Y-7887041D01*
X13759982Y-7887041D02*
X13759982Y-7848946D01*
X13759982Y-7848946D02*
X13750458Y-7801327D01*
X13750458Y-7801327D02*
X13740934Y-7772755D01*
X13740934Y-7772755D02*
X13731411Y-7753708D01*
X13731411Y-7753708D02*
X13712363Y-7725136D01*
X13712363Y-7725136D02*
X13702839Y-7715612D01*
D12*
X8737300Y-8116700D02*
G75*
G03*
X8737300Y-8116700I-30000J0D01*
G01*
D11*
X9036172Y-8008184D02*
X9055220Y-8008184D01*
X9055220Y-8008184D02*
X9074267Y-8017708D01*
X9074267Y-8017708D02*
X9083791Y-8027231D01*
X9083791Y-8027231D02*
X9093315Y-8046279D01*
X9093315Y-8046279D02*
X9102839Y-8084374D01*
X9102839Y-8084374D02*
X9102839Y-8131993D01*
X9102839Y-8131993D02*
X9093315Y-8170088D01*
X9093315Y-8170088D02*
X9083791Y-8189136D01*
X9083791Y-8189136D02*
X9074267Y-8198660D01*
X9074267Y-8198660D02*
X9055220Y-8208184D01*
X9055220Y-8208184D02*
X9036172Y-8208184D01*
X9036172Y-8208184D02*
X9017124Y-8198660D01*
X9017124Y-8198660D02*
X9007601Y-8189136D01*
X9007601Y-8189136D02*
X8998077Y-8170088D01*
X8998077Y-8170088D02*
X8988553Y-8131993D01*
X8988553Y-8131993D02*
X8988553Y-8084374D01*
X8988553Y-8084374D02*
X8998077Y-8046279D01*
X8998077Y-8046279D02*
X9007601Y-8027231D01*
X9007601Y-8027231D02*
X9017124Y-8017708D01*
X9017124Y-8017708D02*
X9036172Y-8008184D01*
X9188553Y-8189136D02*
X9198077Y-8198660D01*
X9198077Y-8198660D02*
X9188553Y-8208184D01*
X9188553Y-8208184D02*
X9179029Y-8198660D01*
X9179029Y-8198660D02*
X9188553Y-8189136D01*
X9188553Y-8189136D02*
X9188553Y-8208184D01*
X9369505Y-8008184D02*
X9331410Y-8008184D01*
X9331410Y-8008184D02*
X9312363Y-8017708D01*
X9312363Y-8017708D02*
X9302839Y-8027231D01*
X9302839Y-8027231D02*
X9283791Y-8055803D01*
X9283791Y-8055803D02*
X9274267Y-8093898D01*
X9274267Y-8093898D02*
X9274267Y-8170088D01*
X9274267Y-8170088D02*
X9283791Y-8189136D01*
X9283791Y-8189136D02*
X9293315Y-8198660D01*
X9293315Y-8198660D02*
X9312363Y-8208184D01*
X9312363Y-8208184D02*
X9350458Y-8208184D01*
X9350458Y-8208184D02*
X9369505Y-8198660D01*
X9369505Y-8198660D02*
X9379029Y-8189136D01*
X9379029Y-8189136D02*
X9388553Y-8170088D01*
X9388553Y-8170088D02*
X9388553Y-8122469D01*
X9388553Y-8122469D02*
X9379029Y-8103422D01*
X9379029Y-8103422D02*
X9369505Y-8093898D01*
X9369505Y-8093898D02*
X9350458Y-8084374D01*
X9350458Y-8084374D02*
X9312363Y-8084374D01*
X9312363Y-8084374D02*
X9293315Y-8093898D01*
X9293315Y-8093898D02*
X9283791Y-8103422D01*
X9283791Y-8103422D02*
X9274267Y-8122469D01*
X9512363Y-8008184D02*
X9531410Y-8008184D01*
X9531410Y-8008184D02*
X9550458Y-8017708D01*
X9550458Y-8017708D02*
X9559982Y-8027231D01*
X9559982Y-8027231D02*
X9569505Y-8046279D01*
X9569505Y-8046279D02*
X9579029Y-8084374D01*
X9579029Y-8084374D02*
X9579029Y-8131993D01*
X9579029Y-8131993D02*
X9569505Y-8170088D01*
X9569505Y-8170088D02*
X9559982Y-8189136D01*
X9559982Y-8189136D02*
X9550458Y-8198660D01*
X9550458Y-8198660D02*
X9531410Y-8208184D01*
X9531410Y-8208184D02*
X9512363Y-8208184D01*
X9512363Y-8208184D02*
X9493315Y-8198660D01*
X9493315Y-8198660D02*
X9483791Y-8189136D01*
X9483791Y-8189136D02*
X9474267Y-8170088D01*
X9474267Y-8170088D02*
X9464744Y-8131993D01*
X9464744Y-8131993D02*
X9464744Y-8084374D01*
X9464744Y-8084374D02*
X9474267Y-8046279D01*
X9474267Y-8046279D02*
X9483791Y-8027231D01*
X9483791Y-8027231D02*
X9493315Y-8017708D01*
X9493315Y-8017708D02*
X9512363Y-8008184D01*
X9702839Y-8008184D02*
X9721886Y-8008184D01*
X9721886Y-8008184D02*
X9740934Y-8017708D01*
X9740934Y-8017708D02*
X9750458Y-8027231D01*
X9750458Y-8027231D02*
X9759982Y-8046279D01*
X9759982Y-8046279D02*
X9769505Y-8084374D01*
X9769505Y-8084374D02*
X9769505Y-8131993D01*
X9769505Y-8131993D02*
X9759982Y-8170088D01*
X9759982Y-8170088D02*
X9750458Y-8189136D01*
X9750458Y-8189136D02*
X9740934Y-8198660D01*
X9740934Y-8198660D02*
X9721886Y-8208184D01*
X9721886Y-8208184D02*
X9702839Y-8208184D01*
X9702839Y-8208184D02*
X9683791Y-8198660D01*
X9683791Y-8198660D02*
X9674267Y-8189136D01*
X9674267Y-8189136D02*
X9664744Y-8170088D01*
X9664744Y-8170088D02*
X9655220Y-8131993D01*
X9655220Y-8131993D02*
X9655220Y-8084374D01*
X9655220Y-8084374D02*
X9664744Y-8046279D01*
X9664744Y-8046279D02*
X9674267Y-8027231D01*
X9674267Y-8027231D02*
X9683791Y-8017708D01*
X9683791Y-8017708D02*
X9702839Y-8008184D01*
X9855220Y-8208184D02*
X9855220Y-8074850D01*
X9855220Y-8093898D02*
X9864744Y-8084374D01*
X9864744Y-8084374D02*
X9883791Y-8074850D01*
X9883791Y-8074850D02*
X9912363Y-8074850D01*
X9912363Y-8074850D02*
X9931410Y-8084374D01*
X9931410Y-8084374D02*
X9940934Y-8103422D01*
X9940934Y-8103422D02*
X9940934Y-8208184D01*
X9940934Y-8103422D02*
X9950458Y-8084374D01*
X9950458Y-8084374D02*
X9969505Y-8074850D01*
X9969505Y-8074850D02*
X9998077Y-8074850D01*
X9998077Y-8074850D02*
X10017125Y-8084374D01*
X10017125Y-8084374D02*
X10026648Y-8103422D01*
X10026648Y-8103422D02*
X10026648Y-8208184D01*
X10121886Y-8208184D02*
X10121886Y-8074850D01*
X10121886Y-8093898D02*
X10131410Y-8084374D01*
X10131410Y-8084374D02*
X10150458Y-8074850D01*
X10150458Y-8074850D02*
X10179029Y-8074850D01*
X10179029Y-8074850D02*
X10198077Y-8084374D01*
X10198077Y-8084374D02*
X10207601Y-8103422D01*
X10207601Y-8103422D02*
X10207601Y-8208184D01*
X10207601Y-8103422D02*
X10217125Y-8084374D01*
X10217125Y-8084374D02*
X10236172Y-8074850D01*
X10236172Y-8074850D02*
X10264744Y-8074850D01*
X10264744Y-8074850D02*
X10283791Y-8084374D01*
X10283791Y-8084374D02*
X10293315Y-8103422D01*
X10293315Y-8103422D02*
X10293315Y-8208184D01*
X10683791Y-7998660D02*
X10512363Y-8255803D01*
X10940934Y-8008184D02*
X10959982Y-8008184D01*
X10959982Y-8008184D02*
X10979029Y-8017708D01*
X10979029Y-8017708D02*
X10988553Y-8027231D01*
X10988553Y-8027231D02*
X10998077Y-8046279D01*
X10998077Y-8046279D02*
X11007601Y-8084374D01*
X11007601Y-8084374D02*
X11007601Y-8131993D01*
X11007601Y-8131993D02*
X10998077Y-8170088D01*
X10998077Y-8170088D02*
X10988553Y-8189136D01*
X10988553Y-8189136D02*
X10979029Y-8198660D01*
X10979029Y-8198660D02*
X10959982Y-8208184D01*
X10959982Y-8208184D02*
X10940934Y-8208184D01*
X10940934Y-8208184D02*
X10921887Y-8198660D01*
X10921887Y-8198660D02*
X10912363Y-8189136D01*
X10912363Y-8189136D02*
X10902839Y-8170088D01*
X10902839Y-8170088D02*
X10893315Y-8131993D01*
X10893315Y-8131993D02*
X10893315Y-8084374D01*
X10893315Y-8084374D02*
X10902839Y-8046279D01*
X10902839Y-8046279D02*
X10912363Y-8027231D01*
X10912363Y-8027231D02*
X10921887Y-8017708D01*
X10921887Y-8017708D02*
X10940934Y-8008184D01*
X11093315Y-8189136D02*
X11102839Y-8198660D01*
X11102839Y-8198660D02*
X11093315Y-8208184D01*
X11093315Y-8208184D02*
X11083791Y-8198660D01*
X11083791Y-8198660D02*
X11093315Y-8189136D01*
X11093315Y-8189136D02*
X11093315Y-8208184D01*
X11226648Y-8008184D02*
X11245696Y-8008184D01*
X11245696Y-8008184D02*
X11264744Y-8017708D01*
X11264744Y-8017708D02*
X11274267Y-8027231D01*
X11274267Y-8027231D02*
X11283791Y-8046279D01*
X11283791Y-8046279D02*
X11293315Y-8084374D01*
X11293315Y-8084374D02*
X11293315Y-8131993D01*
X11293315Y-8131993D02*
X11283791Y-8170088D01*
X11283791Y-8170088D02*
X11274267Y-8189136D01*
X11274267Y-8189136D02*
X11264744Y-8198660D01*
X11264744Y-8198660D02*
X11245696Y-8208184D01*
X11245696Y-8208184D02*
X11226648Y-8208184D01*
X11226648Y-8208184D02*
X11207601Y-8198660D01*
X11207601Y-8198660D02*
X11198077Y-8189136D01*
X11198077Y-8189136D02*
X11188553Y-8170088D01*
X11188553Y-8170088D02*
X11179029Y-8131993D01*
X11179029Y-8131993D02*
X11179029Y-8084374D01*
X11179029Y-8084374D02*
X11188553Y-8046279D01*
X11188553Y-8046279D02*
X11198077Y-8027231D01*
X11198077Y-8027231D02*
X11207601Y-8017708D01*
X11207601Y-8017708D02*
X11226648Y-8008184D01*
X11369506Y-8027231D02*
X11379029Y-8017708D01*
X11379029Y-8017708D02*
X11398077Y-8008184D01*
X11398077Y-8008184D02*
X11445696Y-8008184D01*
X11445696Y-8008184D02*
X11464744Y-8017708D01*
X11464744Y-8017708D02*
X11474267Y-8027231D01*
X11474267Y-8027231D02*
X11483791Y-8046279D01*
X11483791Y-8046279D02*
X11483791Y-8065327D01*
X11483791Y-8065327D02*
X11474267Y-8093898D01*
X11474267Y-8093898D02*
X11359982Y-8208184D01*
X11359982Y-8208184D02*
X11483791Y-8208184D01*
X11550458Y-8008184D02*
X11674267Y-8008184D01*
X11674267Y-8008184D02*
X11607601Y-8084374D01*
X11607601Y-8084374D02*
X11636172Y-8084374D01*
X11636172Y-8084374D02*
X11655220Y-8093898D01*
X11655220Y-8093898D02*
X11664744Y-8103422D01*
X11664744Y-8103422D02*
X11674267Y-8122469D01*
X11674267Y-8122469D02*
X11674267Y-8170088D01*
X11674267Y-8170088D02*
X11664744Y-8189136D01*
X11664744Y-8189136D02*
X11655220Y-8198660D01*
X11655220Y-8198660D02*
X11636172Y-8208184D01*
X11636172Y-8208184D02*
X11579029Y-8208184D01*
X11579029Y-8208184D02*
X11559982Y-8198660D01*
X11559982Y-8198660D02*
X11550458Y-8189136D01*
X11845696Y-8008184D02*
X11807601Y-8008184D01*
X11807601Y-8008184D02*
X11788553Y-8017708D01*
X11788553Y-8017708D02*
X11779029Y-8027231D01*
X11779029Y-8027231D02*
X11759982Y-8055803D01*
X11759982Y-8055803D02*
X11750458Y-8093898D01*
X11750458Y-8093898D02*
X11750458Y-8170088D01*
X11750458Y-8170088D02*
X11759982Y-8189136D01*
X11759982Y-8189136D02*
X11769506Y-8198660D01*
X11769506Y-8198660D02*
X11788553Y-8208184D01*
X11788553Y-8208184D02*
X11826648Y-8208184D01*
X11826648Y-8208184D02*
X11845696Y-8198660D01*
X11845696Y-8198660D02*
X11855220Y-8189136D01*
X11855220Y-8189136D02*
X11864744Y-8170088D01*
X11864744Y-8170088D02*
X11864744Y-8122469D01*
X11864744Y-8122469D02*
X11855220Y-8103422D01*
X11855220Y-8103422D02*
X11845696Y-8093898D01*
X11845696Y-8093898D02*
X11826648Y-8084374D01*
X11826648Y-8084374D02*
X11788553Y-8084374D01*
X11788553Y-8084374D02*
X11769506Y-8093898D01*
X11769506Y-8093898D02*
X11759982Y-8103422D01*
X11759982Y-8103422D02*
X11750458Y-8122469D01*
X11940934Y-8008184D02*
X11940934Y-8046279D01*
X12017125Y-8008184D02*
X12017125Y-8046279D01*
X12312363Y-8284374D02*
X12302839Y-8274850D01*
X12302839Y-8274850D02*
X12283791Y-8246279D01*
X12283791Y-8246279D02*
X12274268Y-8227231D01*
X12274268Y-8227231D02*
X12264744Y-8198660D01*
X12264744Y-8198660D02*
X12255220Y-8151041D01*
X12255220Y-8151041D02*
X12255220Y-8112946D01*
X12255220Y-8112946D02*
X12264744Y-8065327D01*
X12264744Y-8065327D02*
X12274268Y-8036755D01*
X12274268Y-8036755D02*
X12283791Y-8017708D01*
X12283791Y-8017708D02*
X12302839Y-7989136D01*
X12302839Y-7989136D02*
X12312363Y-7979612D01*
X12426648Y-8008184D02*
X12445696Y-8008184D01*
X12445696Y-8008184D02*
X12464744Y-8017708D01*
X12464744Y-8017708D02*
X12474268Y-8027231D01*
X12474268Y-8027231D02*
X12483791Y-8046279D01*
X12483791Y-8046279D02*
X12493315Y-8084374D01*
X12493315Y-8084374D02*
X12493315Y-8131993D01*
X12493315Y-8131993D02*
X12483791Y-8170088D01*
X12483791Y-8170088D02*
X12474268Y-8189136D01*
X12474268Y-8189136D02*
X12464744Y-8198660D01*
X12464744Y-8198660D02*
X12445696Y-8208184D01*
X12445696Y-8208184D02*
X12426648Y-8208184D01*
X12426648Y-8208184D02*
X12407601Y-8198660D01*
X12407601Y-8198660D02*
X12398077Y-8189136D01*
X12398077Y-8189136D02*
X12388553Y-8170088D01*
X12388553Y-8170088D02*
X12379029Y-8131993D01*
X12379029Y-8131993D02*
X12379029Y-8084374D01*
X12379029Y-8084374D02*
X12388553Y-8046279D01*
X12388553Y-8046279D02*
X12398077Y-8027231D01*
X12398077Y-8027231D02*
X12407601Y-8017708D01*
X12407601Y-8017708D02*
X12426648Y-8008184D01*
X12731410Y-8208184D02*
X12731410Y-8008184D01*
X12817125Y-8208184D02*
X12817125Y-8103422D01*
X12817125Y-8103422D02*
X12807601Y-8084374D01*
X12807601Y-8084374D02*
X12788553Y-8074850D01*
X12788553Y-8074850D02*
X12759982Y-8074850D01*
X12759982Y-8074850D02*
X12740934Y-8084374D01*
X12740934Y-8084374D02*
X12731410Y-8093898D01*
X12940934Y-8208184D02*
X12921887Y-8198660D01*
X12921887Y-8198660D02*
X12912363Y-8189136D01*
X12912363Y-8189136D02*
X12902839Y-8170088D01*
X12902839Y-8170088D02*
X12902839Y-8112946D01*
X12902839Y-8112946D02*
X12912363Y-8093898D01*
X12912363Y-8093898D02*
X12921887Y-8084374D01*
X12921887Y-8084374D02*
X12940934Y-8074850D01*
X12940934Y-8074850D02*
X12969506Y-8074850D01*
X12969506Y-8074850D02*
X12988553Y-8084374D01*
X12988553Y-8084374D02*
X12998077Y-8093898D01*
X12998077Y-8093898D02*
X13007601Y-8112946D01*
X13007601Y-8112946D02*
X13007601Y-8170088D01*
X13007601Y-8170088D02*
X12998077Y-8189136D01*
X12998077Y-8189136D02*
X12988553Y-8198660D01*
X12988553Y-8198660D02*
X12969506Y-8208184D01*
X12969506Y-8208184D02*
X12940934Y-8208184D01*
X13121887Y-8208184D02*
X13102839Y-8198660D01*
X13102839Y-8198660D02*
X13093315Y-8179612D01*
X13093315Y-8179612D02*
X13093315Y-8008184D01*
X13274268Y-8198660D02*
X13255220Y-8208184D01*
X13255220Y-8208184D02*
X13217125Y-8208184D01*
X13217125Y-8208184D02*
X13198077Y-8198660D01*
X13198077Y-8198660D02*
X13188553Y-8179612D01*
X13188553Y-8179612D02*
X13188553Y-8103422D01*
X13188553Y-8103422D02*
X13198077Y-8084374D01*
X13198077Y-8084374D02*
X13217125Y-8074850D01*
X13217125Y-8074850D02*
X13255220Y-8074850D01*
X13255220Y-8074850D02*
X13274268Y-8084374D01*
X13274268Y-8084374D02*
X13283791Y-8103422D01*
X13283791Y-8103422D02*
X13283791Y-8122469D01*
X13283791Y-8122469D02*
X13188553Y-8141517D01*
X13359982Y-8198660D02*
X13379030Y-8208184D01*
X13379030Y-8208184D02*
X13417125Y-8208184D01*
X13417125Y-8208184D02*
X13436172Y-8198660D01*
X13436172Y-8198660D02*
X13445696Y-8179612D01*
X13445696Y-8179612D02*
X13445696Y-8170088D01*
X13445696Y-8170088D02*
X13436172Y-8151041D01*
X13436172Y-8151041D02*
X13417125Y-8141517D01*
X13417125Y-8141517D02*
X13388553Y-8141517D01*
X13388553Y-8141517D02*
X13369506Y-8131993D01*
X13369506Y-8131993D02*
X13359982Y-8112946D01*
X13359982Y-8112946D02*
X13359982Y-8103422D01*
X13359982Y-8103422D02*
X13369506Y-8084374D01*
X13369506Y-8084374D02*
X13388553Y-8074850D01*
X13388553Y-8074850D02*
X13417125Y-8074850D01*
X13417125Y-8074850D02*
X13436172Y-8084374D01*
X13683792Y-8131993D02*
X13836173Y-8131993D01*
X13759982Y-8208184D02*
X13759982Y-8055803D01*
X14169506Y-8074850D02*
X14169506Y-8208184D01*
X14121887Y-7998660D02*
X14074268Y-8141517D01*
X14074268Y-8141517D02*
X14198077Y-8141517D01*
X14417125Y-8198660D02*
X14436173Y-8208184D01*
X14436173Y-8208184D02*
X14474268Y-8208184D01*
X14474268Y-8208184D02*
X14493315Y-8198660D01*
X14493315Y-8198660D02*
X14502839Y-8179612D01*
X14502839Y-8179612D02*
X14502839Y-8170088D01*
X14502839Y-8170088D02*
X14493315Y-8151041D01*
X14493315Y-8151041D02*
X14474268Y-8141517D01*
X14474268Y-8141517D02*
X14445696Y-8141517D01*
X14445696Y-8141517D02*
X14426649Y-8131993D01*
X14426649Y-8131993D02*
X14417125Y-8112946D01*
X14417125Y-8112946D02*
X14417125Y-8103422D01*
X14417125Y-8103422D02*
X14426649Y-8084374D01*
X14426649Y-8084374D02*
X14445696Y-8074850D01*
X14445696Y-8074850D02*
X14474268Y-8074850D01*
X14474268Y-8074850D02*
X14493315Y-8084374D01*
X14617125Y-8208184D02*
X14598077Y-8198660D01*
X14598077Y-8198660D02*
X14588554Y-8179612D01*
X14588554Y-8179612D02*
X14588554Y-8008184D01*
X14721887Y-8208184D02*
X14702839Y-8198660D01*
X14702839Y-8198660D02*
X14693315Y-8189136D01*
X14693315Y-8189136D02*
X14683792Y-8170088D01*
X14683792Y-8170088D02*
X14683792Y-8112946D01*
X14683792Y-8112946D02*
X14693315Y-8093898D01*
X14693315Y-8093898D02*
X14702839Y-8084374D01*
X14702839Y-8084374D02*
X14721887Y-8074850D01*
X14721887Y-8074850D02*
X14750458Y-8074850D01*
X14750458Y-8074850D02*
X14769506Y-8084374D01*
X14769506Y-8084374D02*
X14779030Y-8093898D01*
X14779030Y-8093898D02*
X14788554Y-8112946D01*
X14788554Y-8112946D02*
X14788554Y-8170088D01*
X14788554Y-8170088D02*
X14779030Y-8189136D01*
X14779030Y-8189136D02*
X14769506Y-8198660D01*
X14769506Y-8198660D02*
X14750458Y-8208184D01*
X14750458Y-8208184D02*
X14721887Y-8208184D01*
X14845696Y-8074850D02*
X14921887Y-8074850D01*
X14874268Y-8008184D02*
X14874268Y-8179612D01*
X14874268Y-8179612D02*
X14883792Y-8198660D01*
X14883792Y-8198660D02*
X14902839Y-8208184D01*
X14902839Y-8208184D02*
X14921887Y-8208184D01*
X14979030Y-8198660D02*
X14998077Y-8208184D01*
X14998077Y-8208184D02*
X15036173Y-8208184D01*
X15036173Y-8208184D02*
X15055220Y-8198660D01*
X15055220Y-8198660D02*
X15064744Y-8179612D01*
X15064744Y-8179612D02*
X15064744Y-8170088D01*
X15064744Y-8170088D02*
X15055220Y-8151041D01*
X15055220Y-8151041D02*
X15036173Y-8141517D01*
X15036173Y-8141517D02*
X15007601Y-8141517D01*
X15007601Y-8141517D02*
X14988554Y-8131993D01*
X14988554Y-8131993D02*
X14979030Y-8112946D01*
X14979030Y-8112946D02*
X14979030Y-8103422D01*
X14979030Y-8103422D02*
X14988554Y-8084374D01*
X14988554Y-8084374D02*
X15007601Y-8074850D01*
X15007601Y-8074850D02*
X15036173Y-8074850D01*
X15036173Y-8074850D02*
X15055220Y-8084374D01*
X15131411Y-8284374D02*
X15140935Y-8274850D01*
X15140935Y-8274850D02*
X15159982Y-8246279D01*
X15159982Y-8246279D02*
X15169506Y-8227231D01*
X15169506Y-8227231D02*
X15179030Y-8198660D01*
X15179030Y-8198660D02*
X15188554Y-8151041D01*
X15188554Y-8151041D02*
X15188554Y-8112946D01*
X15188554Y-8112946D02*
X15179030Y-8065327D01*
X15179030Y-8065327D02*
X15169506Y-8036755D01*
X15169506Y-8036755D02*
X15159982Y-8017708D01*
X15159982Y-8017708D02*
X15140935Y-7989136D01*
X15140935Y-7989136D02*
X15131411Y-7979612D01*
D12*
X8687300Y-8330700D02*
X8687300Y-8430700D01*
X8637300Y-8380700D02*
X8737300Y-8380700D01*
D11*
X9102839Y-8472184D02*
X8988553Y-8472184D01*
X9045696Y-8472184D02*
X9045696Y-8272184D01*
X9045696Y-8272184D02*
X9026648Y-8300755D01*
X9026648Y-8300755D02*
X9007601Y-8319803D01*
X9007601Y-8319803D02*
X8988553Y-8329327D01*
X9188553Y-8453136D02*
X9198077Y-8462660D01*
X9198077Y-8462660D02*
X9188553Y-8472184D01*
X9188553Y-8472184D02*
X9179029Y-8462660D01*
X9179029Y-8462660D02*
X9188553Y-8453136D01*
X9188553Y-8453136D02*
X9188553Y-8472184D01*
X9321886Y-8272184D02*
X9340934Y-8272184D01*
X9340934Y-8272184D02*
X9359982Y-8281708D01*
X9359982Y-8281708D02*
X9369505Y-8291231D01*
X9369505Y-8291231D02*
X9379029Y-8310279D01*
X9379029Y-8310279D02*
X9388553Y-8348374D01*
X9388553Y-8348374D02*
X9388553Y-8395993D01*
X9388553Y-8395993D02*
X9379029Y-8434089D01*
X9379029Y-8434089D02*
X9369505Y-8453136D01*
X9369505Y-8453136D02*
X9359982Y-8462660D01*
X9359982Y-8462660D02*
X9340934Y-8472184D01*
X9340934Y-8472184D02*
X9321886Y-8472184D01*
X9321886Y-8472184D02*
X9302839Y-8462660D01*
X9302839Y-8462660D02*
X9293315Y-8453136D01*
X9293315Y-8453136D02*
X9283791Y-8434089D01*
X9283791Y-8434089D02*
X9274267Y-8395993D01*
X9274267Y-8395993D02*
X9274267Y-8348374D01*
X9274267Y-8348374D02*
X9283791Y-8310279D01*
X9283791Y-8310279D02*
X9293315Y-8291231D01*
X9293315Y-8291231D02*
X9302839Y-8281708D01*
X9302839Y-8281708D02*
X9321886Y-8272184D01*
X9512363Y-8272184D02*
X9531410Y-8272184D01*
X9531410Y-8272184D02*
X9550458Y-8281708D01*
X9550458Y-8281708D02*
X9559982Y-8291231D01*
X9559982Y-8291231D02*
X9569505Y-8310279D01*
X9569505Y-8310279D02*
X9579029Y-8348374D01*
X9579029Y-8348374D02*
X9579029Y-8395993D01*
X9579029Y-8395993D02*
X9569505Y-8434089D01*
X9569505Y-8434089D02*
X9559982Y-8453136D01*
X9559982Y-8453136D02*
X9550458Y-8462660D01*
X9550458Y-8462660D02*
X9531410Y-8472184D01*
X9531410Y-8472184D02*
X9512363Y-8472184D01*
X9512363Y-8472184D02*
X9493315Y-8462660D01*
X9493315Y-8462660D02*
X9483791Y-8453136D01*
X9483791Y-8453136D02*
X9474267Y-8434089D01*
X9474267Y-8434089D02*
X9464744Y-8395993D01*
X9464744Y-8395993D02*
X9464744Y-8348374D01*
X9464744Y-8348374D02*
X9474267Y-8310279D01*
X9474267Y-8310279D02*
X9483791Y-8291231D01*
X9483791Y-8291231D02*
X9493315Y-8281708D01*
X9493315Y-8281708D02*
X9512363Y-8272184D01*
X9702839Y-8272184D02*
X9721886Y-8272184D01*
X9721886Y-8272184D02*
X9740934Y-8281708D01*
X9740934Y-8281708D02*
X9750458Y-8291231D01*
X9750458Y-8291231D02*
X9759982Y-8310279D01*
X9759982Y-8310279D02*
X9769505Y-8348374D01*
X9769505Y-8348374D02*
X9769505Y-8395993D01*
X9769505Y-8395993D02*
X9759982Y-8434089D01*
X9759982Y-8434089D02*
X9750458Y-8453136D01*
X9750458Y-8453136D02*
X9740934Y-8462660D01*
X9740934Y-8462660D02*
X9721886Y-8472184D01*
X9721886Y-8472184D02*
X9702839Y-8472184D01*
X9702839Y-8472184D02*
X9683791Y-8462660D01*
X9683791Y-8462660D02*
X9674267Y-8453136D01*
X9674267Y-8453136D02*
X9664744Y-8434089D01*
X9664744Y-8434089D02*
X9655220Y-8395993D01*
X9655220Y-8395993D02*
X9655220Y-8348374D01*
X9655220Y-8348374D02*
X9664744Y-8310279D01*
X9664744Y-8310279D02*
X9674267Y-8291231D01*
X9674267Y-8291231D02*
X9683791Y-8281708D01*
X9683791Y-8281708D02*
X9702839Y-8272184D01*
X9855220Y-8472184D02*
X9855220Y-8338850D01*
X9855220Y-8357898D02*
X9864744Y-8348374D01*
X9864744Y-8348374D02*
X9883791Y-8338850D01*
X9883791Y-8338850D02*
X9912363Y-8338850D01*
X9912363Y-8338850D02*
X9931410Y-8348374D01*
X9931410Y-8348374D02*
X9940934Y-8367422D01*
X9940934Y-8367422D02*
X9940934Y-8472184D01*
X9940934Y-8367422D02*
X9950458Y-8348374D01*
X9950458Y-8348374D02*
X9969505Y-8338850D01*
X9969505Y-8338850D02*
X9998077Y-8338850D01*
X9998077Y-8338850D02*
X10017125Y-8348374D01*
X10017125Y-8348374D02*
X10026648Y-8367422D01*
X10026648Y-8367422D02*
X10026648Y-8472184D01*
X10121886Y-8472184D02*
X10121886Y-8338850D01*
X10121886Y-8357898D02*
X10131410Y-8348374D01*
X10131410Y-8348374D02*
X10150458Y-8338850D01*
X10150458Y-8338850D02*
X10179029Y-8338850D01*
X10179029Y-8338850D02*
X10198077Y-8348374D01*
X10198077Y-8348374D02*
X10207601Y-8367422D01*
X10207601Y-8367422D02*
X10207601Y-8472184D01*
X10207601Y-8367422D02*
X10217125Y-8348374D01*
X10217125Y-8348374D02*
X10236172Y-8338850D01*
X10236172Y-8338850D02*
X10264744Y-8338850D01*
X10264744Y-8338850D02*
X10283791Y-8348374D01*
X10283791Y-8348374D02*
X10293315Y-8367422D01*
X10293315Y-8367422D02*
X10293315Y-8472184D01*
X10683791Y-8262660D02*
X10512363Y-8519803D01*
X10940934Y-8272184D02*
X10959982Y-8272184D01*
X10959982Y-8272184D02*
X10979029Y-8281708D01*
X10979029Y-8281708D02*
X10988553Y-8291231D01*
X10988553Y-8291231D02*
X10998077Y-8310279D01*
X10998077Y-8310279D02*
X11007601Y-8348374D01*
X11007601Y-8348374D02*
X11007601Y-8395993D01*
X11007601Y-8395993D02*
X10998077Y-8434089D01*
X10998077Y-8434089D02*
X10988553Y-8453136D01*
X10988553Y-8453136D02*
X10979029Y-8462660D01*
X10979029Y-8462660D02*
X10959982Y-8472184D01*
X10959982Y-8472184D02*
X10940934Y-8472184D01*
X10940934Y-8472184D02*
X10921887Y-8462660D01*
X10921887Y-8462660D02*
X10912363Y-8453136D01*
X10912363Y-8453136D02*
X10902839Y-8434089D01*
X10902839Y-8434089D02*
X10893315Y-8395993D01*
X10893315Y-8395993D02*
X10893315Y-8348374D01*
X10893315Y-8348374D02*
X10902839Y-8310279D01*
X10902839Y-8310279D02*
X10912363Y-8291231D01*
X10912363Y-8291231D02*
X10921887Y-8281708D01*
X10921887Y-8281708D02*
X10940934Y-8272184D01*
X11093315Y-8453136D02*
X11102839Y-8462660D01*
X11102839Y-8462660D02*
X11093315Y-8472184D01*
X11093315Y-8472184D02*
X11083791Y-8462660D01*
X11083791Y-8462660D02*
X11093315Y-8453136D01*
X11093315Y-8453136D02*
X11093315Y-8472184D01*
X11226648Y-8272184D02*
X11245696Y-8272184D01*
X11245696Y-8272184D02*
X11264744Y-8281708D01*
X11264744Y-8281708D02*
X11274267Y-8291231D01*
X11274267Y-8291231D02*
X11283791Y-8310279D01*
X11283791Y-8310279D02*
X11293315Y-8348374D01*
X11293315Y-8348374D02*
X11293315Y-8395993D01*
X11293315Y-8395993D02*
X11283791Y-8434089D01*
X11283791Y-8434089D02*
X11274267Y-8453136D01*
X11274267Y-8453136D02*
X11264744Y-8462660D01*
X11264744Y-8462660D02*
X11245696Y-8472184D01*
X11245696Y-8472184D02*
X11226648Y-8472184D01*
X11226648Y-8472184D02*
X11207601Y-8462660D01*
X11207601Y-8462660D02*
X11198077Y-8453136D01*
X11198077Y-8453136D02*
X11188553Y-8434089D01*
X11188553Y-8434089D02*
X11179029Y-8395993D01*
X11179029Y-8395993D02*
X11179029Y-8348374D01*
X11179029Y-8348374D02*
X11188553Y-8310279D01*
X11188553Y-8310279D02*
X11198077Y-8291231D01*
X11198077Y-8291231D02*
X11207601Y-8281708D01*
X11207601Y-8281708D02*
X11226648Y-8272184D01*
X11359982Y-8272184D02*
X11483791Y-8272184D01*
X11483791Y-8272184D02*
X11417125Y-8348374D01*
X11417125Y-8348374D02*
X11445696Y-8348374D01*
X11445696Y-8348374D02*
X11464744Y-8357898D01*
X11464744Y-8357898D02*
X11474267Y-8367422D01*
X11474267Y-8367422D02*
X11483791Y-8386469D01*
X11483791Y-8386469D02*
X11483791Y-8434089D01*
X11483791Y-8434089D02*
X11474267Y-8453136D01*
X11474267Y-8453136D02*
X11464744Y-8462660D01*
X11464744Y-8462660D02*
X11445696Y-8472184D01*
X11445696Y-8472184D02*
X11388553Y-8472184D01*
X11388553Y-8472184D02*
X11369506Y-8462660D01*
X11369506Y-8462660D02*
X11359982Y-8453136D01*
X11579029Y-8472184D02*
X11617125Y-8472184D01*
X11617125Y-8472184D02*
X11636172Y-8462660D01*
X11636172Y-8462660D02*
X11645696Y-8453136D01*
X11645696Y-8453136D02*
X11664744Y-8424565D01*
X11664744Y-8424565D02*
X11674267Y-8386469D01*
X11674267Y-8386469D02*
X11674267Y-8310279D01*
X11674267Y-8310279D02*
X11664744Y-8291231D01*
X11664744Y-8291231D02*
X11655220Y-8281708D01*
X11655220Y-8281708D02*
X11636172Y-8272184D01*
X11636172Y-8272184D02*
X11598077Y-8272184D01*
X11598077Y-8272184D02*
X11579029Y-8281708D01*
X11579029Y-8281708D02*
X11569506Y-8291231D01*
X11569506Y-8291231D02*
X11559982Y-8310279D01*
X11559982Y-8310279D02*
X11559982Y-8357898D01*
X11559982Y-8357898D02*
X11569506Y-8376946D01*
X11569506Y-8376946D02*
X11579029Y-8386469D01*
X11579029Y-8386469D02*
X11598077Y-8395993D01*
X11598077Y-8395993D02*
X11636172Y-8395993D01*
X11636172Y-8395993D02*
X11655220Y-8386469D01*
X11655220Y-8386469D02*
X11664744Y-8376946D01*
X11664744Y-8376946D02*
X11674267Y-8357898D01*
X11845696Y-8338850D02*
X11845696Y-8472184D01*
X11798077Y-8262660D02*
X11750458Y-8405517D01*
X11750458Y-8405517D02*
X11874267Y-8405517D01*
X11940934Y-8272184D02*
X11940934Y-8310279D01*
X12017125Y-8272184D02*
X12017125Y-8310279D01*
X12312363Y-8548374D02*
X12302839Y-8538850D01*
X12302839Y-8538850D02*
X12283791Y-8510279D01*
X12283791Y-8510279D02*
X12274268Y-8491231D01*
X12274268Y-8491231D02*
X12264744Y-8462660D01*
X12264744Y-8462660D02*
X12255220Y-8415041D01*
X12255220Y-8415041D02*
X12255220Y-8376946D01*
X12255220Y-8376946D02*
X12264744Y-8329327D01*
X12264744Y-8329327D02*
X12274268Y-8300755D01*
X12274268Y-8300755D02*
X12283791Y-8281708D01*
X12283791Y-8281708D02*
X12302839Y-8253136D01*
X12302839Y-8253136D02*
X12312363Y-8243612D01*
X12474268Y-8338850D02*
X12474268Y-8472184D01*
X12426648Y-8262660D02*
X12379029Y-8405517D01*
X12379029Y-8405517D02*
X12502839Y-8405517D01*
X12607601Y-8357898D02*
X12588553Y-8348374D01*
X12588553Y-8348374D02*
X12579029Y-8338850D01*
X12579029Y-8338850D02*
X12569506Y-8319803D01*
X12569506Y-8319803D02*
X12569506Y-8310279D01*
X12569506Y-8310279D02*
X12579029Y-8291231D01*
X12579029Y-8291231D02*
X12588553Y-8281708D01*
X12588553Y-8281708D02*
X12607601Y-8272184D01*
X12607601Y-8272184D02*
X12645696Y-8272184D01*
X12645696Y-8272184D02*
X12664744Y-8281708D01*
X12664744Y-8281708D02*
X12674268Y-8291231D01*
X12674268Y-8291231D02*
X12683791Y-8310279D01*
X12683791Y-8310279D02*
X12683791Y-8319803D01*
X12683791Y-8319803D02*
X12674268Y-8338850D01*
X12674268Y-8338850D02*
X12664744Y-8348374D01*
X12664744Y-8348374D02*
X12645696Y-8357898D01*
X12645696Y-8357898D02*
X12607601Y-8357898D01*
X12607601Y-8357898D02*
X12588553Y-8367422D01*
X12588553Y-8367422D02*
X12579029Y-8376946D01*
X12579029Y-8376946D02*
X12569506Y-8395993D01*
X12569506Y-8395993D02*
X12569506Y-8434089D01*
X12569506Y-8434089D02*
X12579029Y-8453136D01*
X12579029Y-8453136D02*
X12588553Y-8462660D01*
X12588553Y-8462660D02*
X12607601Y-8472184D01*
X12607601Y-8472184D02*
X12645696Y-8472184D01*
X12645696Y-8472184D02*
X12664744Y-8462660D01*
X12664744Y-8462660D02*
X12674268Y-8453136D01*
X12674268Y-8453136D02*
X12683791Y-8434089D01*
X12683791Y-8434089D02*
X12683791Y-8395993D01*
X12683791Y-8395993D02*
X12674268Y-8376946D01*
X12674268Y-8376946D02*
X12664744Y-8367422D01*
X12664744Y-8367422D02*
X12645696Y-8357898D01*
X12921887Y-8472184D02*
X12921887Y-8272184D01*
X13007601Y-8472184D02*
X13007601Y-8367422D01*
X13007601Y-8367422D02*
X12998077Y-8348374D01*
X12998077Y-8348374D02*
X12979030Y-8338850D01*
X12979030Y-8338850D02*
X12950458Y-8338850D01*
X12950458Y-8338850D02*
X12931410Y-8348374D01*
X12931410Y-8348374D02*
X12921887Y-8357898D01*
X13131410Y-8472184D02*
X13112363Y-8462660D01*
X13112363Y-8462660D02*
X13102839Y-8453136D01*
X13102839Y-8453136D02*
X13093315Y-8434089D01*
X13093315Y-8434089D02*
X13093315Y-8376946D01*
X13093315Y-8376946D02*
X13102839Y-8357898D01*
X13102839Y-8357898D02*
X13112363Y-8348374D01*
X13112363Y-8348374D02*
X13131410Y-8338850D01*
X13131410Y-8338850D02*
X13159982Y-8338850D01*
X13159982Y-8338850D02*
X13179030Y-8348374D01*
X13179030Y-8348374D02*
X13188553Y-8357898D01*
X13188553Y-8357898D02*
X13198077Y-8376946D01*
X13198077Y-8376946D02*
X13198077Y-8434089D01*
X13198077Y-8434089D02*
X13188553Y-8453136D01*
X13188553Y-8453136D02*
X13179030Y-8462660D01*
X13179030Y-8462660D02*
X13159982Y-8472184D01*
X13159982Y-8472184D02*
X13131410Y-8472184D01*
X13312363Y-8472184D02*
X13293315Y-8462660D01*
X13293315Y-8462660D02*
X13283791Y-8443612D01*
X13283791Y-8443612D02*
X13283791Y-8272184D01*
X13464744Y-8462660D02*
X13445696Y-8472184D01*
X13445696Y-8472184D02*
X13407601Y-8472184D01*
X13407601Y-8472184D02*
X13388553Y-8462660D01*
X13388553Y-8462660D02*
X13379030Y-8443612D01*
X13379030Y-8443612D02*
X13379030Y-8367422D01*
X13379030Y-8367422D02*
X13388553Y-8348374D01*
X13388553Y-8348374D02*
X13407601Y-8338850D01*
X13407601Y-8338850D02*
X13445696Y-8338850D01*
X13445696Y-8338850D02*
X13464744Y-8348374D01*
X13464744Y-8348374D02*
X13474268Y-8367422D01*
X13474268Y-8367422D02*
X13474268Y-8386469D01*
X13474268Y-8386469D02*
X13379030Y-8405517D01*
X13550458Y-8462660D02*
X13569506Y-8472184D01*
X13569506Y-8472184D02*
X13607601Y-8472184D01*
X13607601Y-8472184D02*
X13626649Y-8462660D01*
X13626649Y-8462660D02*
X13636172Y-8443612D01*
X13636172Y-8443612D02*
X13636172Y-8434089D01*
X13636172Y-8434089D02*
X13626649Y-8415041D01*
X13626649Y-8415041D02*
X13607601Y-8405517D01*
X13607601Y-8405517D02*
X13579030Y-8405517D01*
X13579030Y-8405517D02*
X13559982Y-8395993D01*
X13559982Y-8395993D02*
X13550458Y-8376946D01*
X13550458Y-8376946D02*
X13550458Y-8367422D01*
X13550458Y-8367422D02*
X13559982Y-8348374D01*
X13559982Y-8348374D02*
X13579030Y-8338850D01*
X13579030Y-8338850D02*
X13607601Y-8338850D01*
X13607601Y-8338850D02*
X13626649Y-8348374D01*
X13702839Y-8548374D02*
X13712363Y-8538850D01*
X13712363Y-8538850D02*
X13731411Y-8510279D01*
X13731411Y-8510279D02*
X13740934Y-8491231D01*
X13740934Y-8491231D02*
X13750458Y-8462660D01*
X13750458Y-8462660D02*
X13759982Y-8415041D01*
X13759982Y-8415041D02*
X13759982Y-8376946D01*
X13759982Y-8376946D02*
X13750458Y-8329327D01*
X13750458Y-8329327D02*
X13740934Y-8300755D01*
X13740934Y-8300755D02*
X13731411Y-8281708D01*
X13731411Y-8281708D02*
X13712363Y-8253136D01*
X13712363Y-8253136D02*
X13702839Y-8243612D01*
M02*
